<svg width="52" height="52" viewBox="0 0 52 52" fill="none" xmlns="http://www.w3.org/2000/svg">
<path d="M26.0002 0.341187C15.2495 0.341187 5.99279 6.76749 2.04317 15.9385C1.93528 16.177 1.87684 16.4343 1.87126 16.6953C1.86568 16.9563 1.91308 17.2157 2.01068 17.4585C2.10828 17.7013 2.25414 17.9225 2.43973 18.1093C2.62531 18.2961 2.84692 18.4447 3.0916 18.5464C3.33628 18.6481 3.59913 18.7009 3.86481 18.7017C4.13049 18.7025 4.39368 18.6513 4.63899 18.5511C4.88431 18.4509 5.10685 18.3037 5.29362 18.118C5.48038 17.9324 5.62763 17.712 5.72676 17.4698C9.06514 9.71811 16.8709 4.27122 26.0002 4.27122C31.3863 4.27122 36.2968 6.16192 40.1213 9.3104C40.3226 9.4763 40.5553 9.6016 40.8059 9.67915C41.0565 9.7567 41.3202 9.78498 41.582 9.76238C41.8437 9.73978 42.0984 9.66673 42.3314 9.54742C42.5644 9.42811 42.7712 9.26486 42.94 9.06701C43.1088 8.86916 43.2363 8.64057 43.3152 8.39431C43.394 8.14805 43.4228 7.88893 43.3997 7.63176C43.3766 7.37459 43.3022 7.12441 43.1807 6.8955C43.0592 6.66658 42.893 6.46343 42.6916 6.29764C38.1761 2.58036 32.3421 0.341187 26.0002 0.341187ZM26.0002 8.20124C23.902 8.20124 21.8789 8.55388 20.0002 9.20678C19.7524 9.29293 19.5243 9.4262 19.3289 9.59898C19.1335 9.77175 18.9747 9.98065 18.8615 10.2137C18.7483 10.4468 18.6829 10.6996 18.6691 10.9575C18.6553 11.2154 18.6934 11.4734 18.7811 11.7169C18.8688 11.9604 19.0045 12.1845 19.1804 12.3764C19.3563 12.5683 19.5689 12.7243 19.8062 12.8355C20.0435 12.9467 20.3007 13.0109 20.5632 13.0244C20.8257 13.0379 21.0884 13.0004 21.3361 12.9142C22.7934 12.4078 24.3584 12.1313 26.0002 12.1313C33.7552 12.1313 40.0002 18.2671 40.0002 25.8864V45.5365C39.9964 45.7969 40.0454 46.0554 40.1442 46.2971C40.2431 46.5387 40.3898 46.7586 40.5759 46.9441C40.762 47.1295 40.9837 47.2768 41.2282 47.3773C41.4727 47.4778 41.7351 47.5295 42.0002 47.5295C42.2652 47.5295 42.5277 47.4778 42.7722 47.3773C43.0167 47.2768 43.2384 47.1295 43.4245 46.9441C43.6106 46.7586 43.7573 46.5387 43.8562 46.2971C43.955 46.0554 44.0039 45.7969 44.0002 45.5365V25.8864C44.0002 16.1428 35.9172 8.20124 26.0002 8.20124ZM47.008 12.5726C46.6614 12.5784 46.3222 12.6727 46.0238 12.8461C45.7254 13.0195 45.478 13.2661 45.3059 13.5618C45.1338 13.8575 45.0428 14.192 45.0419 14.5327C45.0411 14.8733 45.1303 15.2083 45.301 15.5048C47.0207 18.5868 48.0002 22.1163 48.0002 25.8864V39.6415C47.9964 39.9019 48.0454 40.1604 48.1442 40.402C48.2431 40.6437 48.3898 40.8636 48.5759 41.049C48.762 41.2345 48.9837 41.3817 49.2282 41.4822C49.4727 41.5827 49.7351 41.6345 50.0002 41.6345C50.2652 41.6345 50.5277 41.5827 50.7722 41.4822C51.0167 41.3817 51.2384 41.2345 51.4245 41.049C51.6106 40.8636 51.7573 40.6437 51.8562 40.402C51.955 40.1604 52.0039 39.9019 52.0002 39.6415V25.8864C52.0002 21.4466 50.8411 17.2588 48.8088 13.6165C48.6358 13.2963 48.3761 13.0292 48.0583 12.845C47.7405 12.6608 47.377 12.5665 47.008 12.5726ZM13.2971 14.2345C13.0065 14.2496 12.7229 14.3267 12.4658 14.4606C12.2088 14.5945 11.9846 14.7819 11.8088 15.0097C9.42502 18.008 8.0002 21.795 8.0002 25.8864V45.5365C7.99645 45.7969 8.04541 46.0554 8.14424 46.2971C8.24307 46.5387 8.38979 46.7586 8.57588 46.9441C8.76197 47.1295 8.98371 47.2768 9.22823 47.3773C9.47274 47.4778 9.73515 47.5295 10.0002 47.5295C10.2653 47.5295 10.5277 47.4778 10.7722 47.3773C11.0167 47.2768 11.2384 47.1295 11.4245 46.9441C11.6106 46.7586 11.7573 46.5387 11.8562 46.2971C11.955 46.0554 12.0039 45.7969 12.0002 45.5365V25.8864C12.0002 22.6876 13.1049 19.7624 14.9611 17.4276C15.2029 17.1319 15.3523 16.7738 15.3915 16.3966C15.4307 16.0193 15.358 15.6389 15.1821 15.3013C15.0061 14.9638 14.7346 14.6834 14.4001 14.4941C14.0656 14.3048 13.6825 14.2146 13.2971 14.2345ZM26.0002 16.0613C20.5012 16.0613 16.0002 20.4835 16.0002 25.8864V49.4666C15.9965 49.7269 16.0454 49.9855 16.1442 50.2271C16.2431 50.4687 16.3898 50.6887 16.5759 50.8741C16.762 51.0595 16.9837 51.2068 17.2282 51.3073C17.4727 51.4078 17.7351 51.4596 18.0002 51.4596C18.2653 51.4596 18.5277 51.4078 18.7722 51.3073C19.0167 51.2068 19.2384 51.0595 19.4245 50.8741C19.6106 50.6887 19.7573 50.4687 19.8562 50.2271C19.955 49.9855 20.0039 49.7269 20.0002 49.4666V25.8864C20.0002 22.6078 22.6632 19.9913 26.0002 19.9913C29.3372 19.9913 32.0002 22.6078 32.0002 25.8864C32.0002 28.2399 31.8984 30.6965 31.7424 33.0863C31.7234 33.3451 31.7567 33.6051 31.8405 33.8512C31.9243 34.0972 32.0568 34.3246 32.2305 34.5201C32.4042 34.7156 32.6155 34.8753 32.8524 34.9902C33.0892 35.105 33.3469 35.1726 33.6104 35.189C33.874 35.2055 34.1383 35.1705 34.388 35.0861C34.6378 35.0017 34.868 34.8695 35.0655 34.6972C35.263 34.5249 35.4238 34.3159 35.5386 34.0823C35.6535 33.8486 35.7201 33.5949 35.7346 33.3358C35.8946 30.8838 36.0002 28.351 36.0002 25.8864C36.0002 20.4835 31.4992 16.0613 26.0002 16.0613ZM1.96114 22.3018C1.46619 22.3249 0.997592 22.5277 0.646134 22.8709C0.294677 23.214 0.0853795 23.6732 0.0587938 24.1593C0.019762 24.7303 0.000200015 25.3067 0.000200015 25.8864V39.6415C-0.00354808 39.9019 0.0454145 40.1604 0.144242 40.402C0.24307 40.6437 0.389791 40.8636 0.57588 41.049C0.761969 41.2345 0.983714 41.3817 1.22823 41.4822C1.47274 41.5827 1.73515 41.6345 2.0002 41.6345C2.26525 41.6345 2.52766 41.5827 2.77217 41.4822C3.01669 41.3817 3.23843 41.2345 3.42452 41.049C3.61061 40.8636 3.75733 40.6437 3.85616 40.402C3.95499 40.1604 4.00395 39.9019 4.0002 39.6415V25.8864C4.0002 25.3931 4.01802 24.9064 4.05098 24.4241C4.07406 24.1456 4.0364 23.8654 3.94051 23.6022C3.84462 23.3391 3.69272 23.0991 3.49493 22.8983C3.29714 22.6974 3.05803 22.5403 2.79354 22.4374C2.52905 22.3346 2.24527 22.2883 1.96114 22.3018ZM25.969 23.8945C25.4392 23.9026 24.9344 24.1169 24.5653 24.4904C24.1962 24.8638 23.9929 25.3659 24.0002 25.8864V39.3229C23.9965 39.5833 24.0454 39.8418 24.1442 40.0835C24.2431 40.3251 24.3898 40.545 24.5759 40.7305C24.762 40.9159 24.9837 41.0632 25.2282 41.1637C25.4727 41.2642 25.7351 41.3159 26.0002 41.3159C26.2653 41.3159 26.5277 41.2642 26.7722 41.1637C27.0167 41.0632 27.2384 40.9159 27.4245 40.7305C27.6106 40.545 27.7573 40.3251 27.8562 40.0835C27.955 39.8418 28.0039 39.5833 28.0002 39.3229V25.8864C28.0039 25.6235 27.9538 25.3625 27.853 25.119C27.7521 24.8754 27.6026 24.6543 27.4132 24.4685C27.2238 24.2828 26.9984 24.1363 26.7503 24.0377C26.5022 23.9391 26.2365 23.8904 25.969 23.8945ZM33.9689 40.102C33.4392 40.1102 32.9344 40.3245 32.5653 40.6979C32.1962 41.0713 31.9929 41.5734 32.0002 42.0939V49.4666C31.9965 49.7269 32.0454 49.9855 32.1442 50.2271C32.2431 50.4687 32.3898 50.6887 32.5759 50.8741C32.762 51.0595 32.9837 51.2068 33.2282 51.3073C33.4727 51.4078 33.7351 51.4596 34.0002 51.4596C34.2652 51.4596 34.5277 51.4078 34.7722 51.3073C35.0167 51.2068 35.2384 51.0595 35.4245 50.8741C35.6106 50.6887 35.7573 50.4687 35.8562 50.2271C35.955 49.9855 36.0039 49.7269 36.0002 49.4666V42.0939C36.0039 41.831 35.9538 41.5701 35.853 41.3265C35.7521 41.083 35.6026 40.8618 35.4132 40.676C35.2238 40.4903 34.9984 40.3438 34.7503 40.2452C34.5022 40.1466 34.2365 40.0979 33.9689 40.102ZM26.0549 45.2947C25.7919 45.2932 25.5312 45.3427 25.2878 45.4403C25.0443 45.5379 24.8228 45.6817 24.6359 45.8635C24.4491 46.0453 24.3005 46.2616 24.1988 46.4998C24.0971 46.7381 24.0442 46.9937 24.0432 47.2521L24.0002 49.4282C23.9951 49.6862 24.0417 49.9427 24.1375 50.1831C24.2333 50.4234 24.3763 50.6429 24.5584 50.8289C24.7405 51.0149 24.9581 51.1639 25.1987 51.2673C25.4394 51.3707 25.6985 51.4265 25.9611 51.4316C26.2238 51.4366 26.4849 51.3908 26.7295 51.2967C26.9741 51.2026 27.1974 51.0621 27.3868 50.8832C27.5761 50.7043 27.7278 50.4905 27.833 50.254C27.9383 50.0175 27.9951 49.763 28.0002 49.5049L28.0432 47.3288C28.0526 47.066 28.0082 46.804 27.9126 46.5583C27.817 46.3127 27.6723 46.0883 27.4868 45.8987C27.3014 45.709 27.0792 45.5578 26.8332 45.4541C26.5872 45.3503 26.3226 45.2961 26.0549 45.2947Z" fill="url(#paint0_linear)"/>
<defs>
<linearGradient id="paint0_linear" x1="26.0002" y1="0.341187" x2="26.0002" y2="51.4596" gradientUnits="userSpaceOnUse">
<stop stop-color="#676C73"/>
<stop offset="1" stop-color="#1B1D20"/>
</linearGradient>
</defs>
</svg>
