<svg width="16" height="16" viewBox="0 0 16 16" fill="none" xmlns="http://www.w3.org/2000/svg">
<path d="M15.9857 0.0144048C15.9857 0.0144048 10 8.2016e-05 5.33333 4.66675C5.11787 4.88221 4.93027 5.11676 4.76042 5.35946C3.93303 5.2933 2.66651 5.31491 2.01823 5.96362C0.504896 7.47696 0 10.0001 0 10.0001L3.33333 9.52352V10.6667L5.33333 12.6667H6.47656L6 16.0001C6 16.0001 8.52312 15.4952 10.0365 13.9819C10.6852 13.3336 10.7068 12.0671 10.6406 11.2397C10.8833 11.0698 11.1179 10.8822 11.3333 10.6667C16 6.00008 15.9857 0.0144048 15.9857 0.0144048ZM10.6667 4.00008C11.4033 4.00008 12 4.59675 12 5.33342C12 6.07008 11.4033 6.66675 10.6667 6.66675C9.93 6.66675 9.33333 6.07008 9.33333 5.33342C9.33333 4.59675 9.93 4.00008 10.6667 4.00008ZM2.79948 11.3308C2.54615 11.3975 2.30607 11.5247 2.10807 11.7227C1.19741 12.6334 1.34245 14.6563 1.34245 14.6563C1.34245 14.6563 3.35207 14.8134 4.27474 13.8907C4.47274 13.6927 4.6 13.4513 4.66667 13.198L4.36198 12.8933C4.33198 12.936 4.31341 12.9855 4.27474 13.0235C3.62474 13.6735 2.64974 13.349 2.64974 13.349C2.64974 13.349 2.32459 12.374 2.97526 11.724C3.01393 11.6854 3.0615 11.6675 3.10417 11.6368L2.79948 11.3308Z" fill="#fafafa"/>
</svg>
