<svg width="18" height="20" viewBox="0 0 18 20" fill="none" xmlns="http://www.w3.org/2000/svg">
<path d="M17.4103 14.5734C16.9506 15.592 16.7312 16.0487 16.1393 16.9472C15.316 18.2062 14.1501 19.7747 12.7078 19.7837C11.4277 19.7957 11.0972 18.9484 9.35744 18.9634C7.61765 18.9694 7.25407 19.7987 5.97102 19.7867C4.53171 19.7747 3.42895 18.3594 2.60263 17.1064C0.291932 13.5878 0.0485416 9.46218 1.47583 7.26867C2.48544 5.71218 4.084 4.79872 5.5864 4.79872C7.11285 4.79872 8.07438 5.63706 9.33941 5.63706C10.5654 5.63706 11.3106 4.79571 13.0804 4.79571C14.4145 4.79571 15.8298 5.52288 16.8394 6.78189C13.5341 8.59078 14.072 13.3113 17.4103 14.5734ZM11.7372 3.38946C12.3803 2.56614 12.8671 1.40028 12.6928 0.213379C11.6411 0.285494 10.4151 0.955567 9.69698 1.82095C9.04794 2.61122 8.51008 3.7861 8.72042 4.92191C9.86525 4.95797 11.0491 4.27588 11.7372 3.38946Z" fill="#1B1D20"/>
</svg>
