<svg width="100" height="29" viewBox="0 0 100 29" fill="none" xmlns="http://www.w3.org/2000/svg">
<path d="M56.376 17.0761H58.3757V18.4478C58.7724 17.638 59.483 16.9274 60.9209 16.9274C63.1686 16.9274 63.9619 18.514 63.9619 20.1997V25.3892H61.8795V21.2409C61.8795 20.365 61.7968 18.8445 60.359 18.8445C59.0038 18.8445 58.4584 19.8857 58.4584 20.9104V25.3892H56.376V17.0761Z" fill="#367D40"/>
<path d="M47.1732 16.9274C49.6523 16.9274 51.652 18.6792 51.652 21.2409C51.652 23.7861 49.6523 25.5544 47.1732 25.5544C44.7107 25.5544 42.7109 23.7861 42.7109 21.2409C42.7109 18.6792 44.7107 16.9274 47.1732 16.9274ZM47.1732 23.7034C48.6937 23.7034 49.5696 22.5135 49.5696 21.2409C49.5696 19.9518 48.6937 18.7619 47.1732 18.7619C45.6693 18.7619 44.7768 19.9518 44.7768 21.2409C44.7768 22.5135 45.6693 23.7034 47.1732 23.7034Z" fill="#367D40"/>
<path d="M99.9999 25.199C99.6198 25.2816 99.2892 25.3147 99.0248 25.3147C98.4463 25.3147 98.0332 25.2155 97.7687 25.0172C97.5043 24.8189 97.3556 24.571 97.2894 24.2569C97.2399 23.9429 97.2068 23.5132 97.2068 22.9678V18.5221H96.2483V17.5139H97.2068V15.5968L98.5124 14.8035V17.5139H99.8181V18.5221H98.5124V23.0339C98.5124 23.4141 98.5455 23.695 98.6281 23.8603C98.7108 24.0256 98.9091 24.1082 99.2396 24.1082C99.4214 24.1082 99.6197 24.0751 99.8181 24.0421L99.9999 25.199ZM76.9778 17.5139L74.5484 25.2155H73.1931L71.9701 20.588C71.9701 20.588 71.9206 20.3896 71.8214 19.9599C71.7222 19.5468 71.6727 19.3319 71.6727 19.2823H71.6396L70.1191 25.2155H68.7474L66.384 17.5139H67.7392L69.425 23.6124L69.6729 22.5712L71.0446 17.5139H72.3998L73.441 21.5465C73.722 22.6704 73.8873 23.2984 73.9203 23.4471H73.9369L75.6887 17.5139H76.9778ZM83.8861 25.2155H82.5143C82.3821 24.9841 82.2995 24.6536 82.2499 24.2735C81.374 25.0172 80.4154 25.3973 79.4073 25.3973C78.5975 25.3973 77.9529 25.199 77.4736 24.7858C77.0109 24.3892 76.7795 23.8438 76.7795 23.1827C76.7795 22.5381 76.9943 22.0093 77.4571 21.5961C77.9033 21.1829 78.6966 20.902 79.8039 20.7698L81.0269 20.588C81.4897 20.5219 81.8698 20.4227 82.1508 20.3235C82.1508 19.9269 82.1508 19.6624 82.1177 19.4972C82.1012 19.3319 82.0185 19.1666 81.9028 18.9848C81.7872 18.8196 81.6054 18.6708 81.3409 18.5717C81.0765 18.456 80.7294 18.4064 80.2832 18.4064C79.7213 18.4064 79.2751 18.5056 78.9445 18.7204C78.6305 18.9353 78.3991 19.3154 78.2834 19.8773L76.9943 19.712C77.1431 18.9187 77.5067 18.3238 78.0851 17.9271C78.6636 17.5305 79.4569 17.3321 80.4815 17.3321C81.407 17.3321 82.0846 17.4809 82.5143 17.7453C82.944 18.0263 83.225 18.3568 83.3242 18.7369C83.4233 19.1336 83.4729 19.6294 83.4729 20.2409V21.9927C83.4729 23.067 83.4894 23.7777 83.5225 24.1413C83.5721 24.5214 83.6878 24.8684 83.8861 25.2155ZM82.1508 21.8275V21.3482C81.4731 21.5796 80.6468 21.7614 79.6552 21.8936C78.6636 22.0258 78.1678 22.439 78.1678 23.1496C78.1678 23.4967 78.3 23.7942 78.5644 24.0256C78.8288 24.2569 79.2255 24.3726 79.7213 24.3726C80.3658 24.3726 80.9278 24.1743 81.4236 23.7942C81.9194 23.4141 82.1508 22.753 82.1508 21.8275ZM85.9354 25.2155H84.6298V14.5721H85.9354V25.2155ZM88.4145 25.2155H87.0923V14.5721H88.4145V25.2155ZM96.2648 21.6953H90.4803C90.5464 22.5547 90.7778 23.1992 91.2241 23.6454C91.6538 24.1082 92.1826 24.3231 92.8437 24.3231C93.3395 24.3231 93.7527 24.1908 94.0997 23.9264C94.4303 23.662 94.6947 23.2653 94.8765 22.7365L96.2152 22.9017C96.0003 23.7116 95.6037 24.3231 95.0253 24.7528C94.4303 25.1825 93.7031 25.3973 92.8437 25.3973C91.6868 25.3973 90.7778 25.0502 90.1333 24.3396C89.4722 23.6289 89.1582 22.6538 89.1582 21.4308C89.1582 20.2078 89.4722 19.2327 90.1002 18.4725C90.7282 17.7123 91.6207 17.3321 92.7611 17.3321C93.323 17.3321 93.8684 17.4644 94.3972 17.7123C94.9096 17.9602 95.3558 18.3733 95.7194 18.9683C96.083 19.5633 96.2648 20.4723 96.2648 21.6953ZM94.9096 20.621C94.86 19.8442 94.6121 19.2658 94.1824 18.9187C93.7527 18.5717 93.2734 18.4064 92.7611 18.4064C92.1496 18.4064 91.6538 18.6047 91.2571 19.0179C90.8439 19.4311 90.6291 19.9599 90.563 20.621H94.9096Z" fill="#636466"/>
<path d="M53.8209 13.0879C54.5481 13.0879 55.1761 13.6498 55.1761 14.3605C55.1761 15.0877 54.6307 15.6496 53.8209 15.6496C53.0276 15.6496 52.5483 15.0877 52.5483 14.3605C52.5483 13.6498 53.1103 13.0879 53.8209 13.0879ZM52.7962 17.0709H54.8621V25.384H52.7962V17.0709Z" fill="#367D40"/>
<path d="M40.7287 16.0488C39.8527 15.0902 38.9768 14.8423 38.1835 14.8423C35.7045 14.8423 34.0187 16.7594 34.0187 19.2385C34.0187 21.8663 35.7045 23.7834 38.1835 23.7834C39.1256 23.7834 40.0841 23.3041 40.8939 22.2629L42.6458 23.552C41.522 25.0725 39.8527 25.7005 38.1009 25.7005C34.3493 25.7005 31.6223 23.1554 31.6223 19.3211C31.6223 15.4042 34.3493 12.8425 38.1009 12.8425C39.7701 12.8425 41.1253 13.4044 42.3318 14.7597L40.7287 16.0488Z" fill="#367D40"/>
<path d="M13.5852 20.6725V18.9867C13.5852 17.0035 14.9404 15.4004 16.9236 15.4004H24.5921V14.4418C24.5921 12.4421 23.0055 10.8555 21.0884 10.8555H3.52024C1.60312 10.8555 0 12.4421 0 14.4418V25.2174C0 27.2172 1.60312 28.8203 3.52024 28.8203H21.0884C23.0055 28.8203 24.5921 27.2172 24.5921 25.2174V24.2588H16.9236C14.9404 24.2588 13.5852 22.6722 13.5852 20.6725Z" fill="#575756"/>
<path d="M23.9667 16.3632H17.4881C15.9842 16.3632 14.6951 17.6357 14.6951 19.1562V20.4288C14.6951 21.9493 15.9842 23.2218 17.4881 23.2218H23.9667C25.4706 23.2218 26.7598 21.9493 26.7598 20.4288V19.1562C26.7598 17.5531 25.4706 16.3632 23.9667 16.3632ZM17.5708 21.3212C16.6948 21.3212 16.0503 20.5941 16.0503 19.8008C16.0503 18.9248 16.7775 18.2803 17.5708 18.2803C18.4467 18.2803 19.0912 18.9909 19.0912 19.8008C19.0912 20.6767 18.4467 21.3212 17.5708 21.3212Z" fill="#575756"/>
<path d="M16.5306 0C14.1342 0.0661079 12.217 1.98324 12.217 4.46228C12.2997 6.85869 14.2168 8.77582 16.6958 8.77582C19.0923 8.69318 21.0094 6.77605 21.0094 4.31354C20.9268 1.91713 18.927 0 16.5306 0ZM16.6132 8.37917C14.3821 8.4618 12.5476 6.69342 12.5476 4.46228C12.4649 2.23114 14.2994 0.396647 16.4479 0.396647C18.6956 0.314012 20.5301 2.14851 20.5301 4.31354C20.6127 6.54468 18.8444 8.37917 16.6132 8.37917Z" fill="#367D40"/>
<path d="M16.9183 4.55054C16.7696 4.55054 16.6869 4.55054 16.6869 4.55054H16.2903V5.59174C16.3729 5.59174 16.439 5.59174 16.8522 5.59174C17.3976 5.59174 17.6455 5.34383 17.6455 4.94718C17.5629 4.63317 17.0836 4.55054 16.9183 4.55054Z" fill="#367D40"/>
<path d="M17.3315 3.49992C17.3315 3.10327 16.8522 3.10327 16.6043 3.10327C16.439 3.10327 16.2903 3.10327 16.2903 3.10327V4.06184H16.9183C17.0836 4.06184 17.3315 3.89657 17.3315 3.49992Z" fill="#367D40"/>
<path d="M16.5181 0.714341C14.4522 0.714341 12.8491 2.4662 12.9318 4.46596C12.9318 6.54836 14.6836 8.13495 16.6834 8.06884C18.7658 8.06884 20.3524 6.30045 20.2697 4.31722C20.2036 2.31746 18.5179 0.631706 16.5181 0.714341ZM17.2453 6.15171H17.1627V6.94501H16.6834V6.15171C16.6008 6.15171 16.4355 6.15171 16.3694 6.15171V6.94501H15.8901V6.15171C15.3282 6.15171 14.9315 6.15171 14.9315 6.15171L14.8489 5.73854C14.8489 5.73854 15.1629 5.73854 15.2455 5.73854C15.3282 5.73854 15.4108 5.67243 15.4108 5.50716C15.4108 5.34189 15.4108 3.42476 15.3282 3.35865C15.3282 3.19339 15.2455 3.19339 15.0803 3.19339C14.9315 3.19339 14.6836 3.19339 14.6836 3.19339V2.7141C14.6836 2.7141 15.1629 2.7141 15.6422 2.7141V1.92081H16.1215V2.7141C16.2041 2.7141 16.3694 2.7141 16.4355 2.7141V1.92081H16.9148V2.7141C17.394 2.7141 18.0386 2.94548 18.1212 3.42476C18.3526 3.90404 17.8733 4.15195 17.8733 4.15195C17.8733 4.15195 18.5179 4.31722 18.6005 4.94524C18.6005 5.67243 18.2865 6.15171 17.2453 6.15171Z" fill="#367D40"/>
<path d="M8.87294 7.17542C7.10456 7.17542 5.66671 8.21661 4.95605 9.73709H5.3527C5.99725 8.46452 7.35246 7.58859 8.87294 7.58859C10.4595 7.58859 11.8147 8.46452 12.5419 9.73709H12.9386C12.2114 8.21661 10.7074 7.17542 8.87294 7.17542Z" fill="#367D40"/>
<path d="M8.13677 8.93707H8.61605V9.73036H8.93006V8.93707H9.40934V9.73036H12.1363C11.4917 8.60653 10.2192 7.81323 8.86395 7.81323C7.49221 7.81323 6.30227 8.60653 5.74036 9.73036H8.13677V8.93707Z" fill="#367D40"/>
</svg>
