<svg xmlns="http://www.w3.org/2000/svg" xmlns:xlink="http://www.w3.org/1999/xlink" width="432.83" height="274.17" viewBox="0 0 432.83 274.17">
  <defs>
    <clipPath id="a">
      <rect x="365.91" y="4.3" width="62.91" height="59.17" transform="translate(-0.66 58.77) rotate(-8.45)" style="fill: none"/>
    </clipPath>
  </defs>
  <path d="M162.81,244.23l-1-5.58,10.89-4.41L186.51,227l8.73-5.46,10.32-7.66,7.31-6.95,5.36-6.37,5.4-8.24,3.67-3.47-2.36,17-2.19,10.66-2.38,8.94L216,237.76,209.83,250,203,258.81l-6.27,4.82L190.3,266l-7.48-.8-6.47-3.39-5.68-5.42-3.89-5.25Z" style="fill: #2fa761"/>
  <path d="M151.68,120.92c6.94-30.33,21.2-55.39,36.25-55.39,8.92,0,17.17,7.19,23.85,19.36-13.48,5.13-15.86,12.86-20,20C162.2,107.43,151.68,120.92,151.68,120.92Z" style="fill: #2fa761"/>
  <path d="M138,245.41a9.35,9.35,0,0,1-7.24-3.06c-3.2-3.23-6.21-6.65-8.48-9.26a232.85,232.85,0,0,1-18-23.72c-4-6.06-8-8.83-11.87-8.24a1.2,1.2,0,0,1-.46,0,1.18,1.18,0,0,1,.1-2.31c2.87-.44,5.74.48,8.53,2.73a28.73,28.73,0,0,1,5.67,6.55,230.57,230.57,0,0,0,17.82,23.49c2.24,2.59,5.22,6,8.37,9.14,2,2,3.44,2.8,9.09,2.05,8.89-1.17,18.65-4.14,29-8.83a174.2,174.2,0,0,0,26.59-15.14,89.36,89.36,0,0,0,17.24-15.36,71.08,71.08,0,0,0,11.81-19.15,1.18,1.18,0,1,1,2.19.89,73.45,73.45,0,0,1-12.2,19.78,91.68,91.68,0,0,1-17.69,15.77,176.37,176.37,0,0,1-27,15.35c-10.58,4.79-20.57,7.82-29.69,9A29.73,29.73,0,0,1,138,245.41Z" style="fill: #2a3e3d"/>
  <path d="M152.1,222.68a1.19,1.19,0,0,1-1-.58c-5.07-8.53-14.62-17.19-24.92-22.6-11.75-6.18-23.21-7.67-32.24-4.2a1.18,1.18,0,0,1-.46.08,1.21,1.21,0,0,1-.45-0.1,1.19,1.19,0,0,1-.38-0.27,1.18,1.18,0,0,1,0-1.67,1.19,1.19,0,0,1,.39-0.25c9.69-3.72,21.83-2.18,34.2,4.31,10.82,5.69,20.49,14.47,25.85,23.48a1.18,1.18,0,0,1-.42,1.62,1.19,1.19,0,0,1-.6.16h0Z" style="fill: #2a3e3d"/>
  <path d="M97.8,265.67a1.18,1.18,0,0,1-1.1-.75c-3.06-7.81-3.34-17.18-.82-27.84,2.26-9.56,5.32-17.37,9.36-23.87a1.19,1.19,0,0,1,1.2-.55,1.2,1.2,0,0,1,.44.16,1.18,1.18,0,0,1,.38,1.64c-3.9,6.28-6.87,13.85-9.07,23.16-2.41,10.19-2.16,19.08.72,26.44a1.18,1.18,0,0,1-.55,1.47,1.2,1.2,0,0,1-.55.14h0Z" style="fill: #2a3e3d"/>
  <path d="M122.87,196.48a1.19,1.19,0,0,1-1.08-.7,1.18,1.18,0,0,1,.2-1.27,135.19,135.19,0,0,1,18.83-17.22,1.19,1.19,0,0,1,1.66.23,1.18,1.18,0,0,1-.23,1.65,132.89,132.89,0,0,0-18.5,16.91,1.18,1.18,0,0,1-.4.29A1.19,1.19,0,0,1,122.87,196.48Z" style="fill: #2a3e3d"/>
  <path d="M104.9,274.17a1.18,1.18,0,0,1-1.14-.86c-1.71-6.09-.29-13.38,4.23-21.67a84.38,84.38,0,0,1,13.5-17.83,1.19,1.19,0,0,1,1.67,0,1.18,1.18,0,0,1,0,1.67,81.92,81.92,0,0,0-13.11,17.3c-4.21,7.74-5.57,14.43-4,19.91a1.18,1.18,0,0,1-1.14,1.5h0Z" style="fill: #2a3e3d"/>
  <path d="M142.52,210.4a1.18,1.18,0,0,1-.95-1.89,63.21,63.21,0,0,1,19-16.65,1.19,1.19,0,0,1,.44-0.15,1.18,1.18,0,0,1,.74,2.2,60.81,60.81,0,0,0-18.25,16,1.18,1.18,0,0,1-.95.47h0Z" style="fill: #2a3e3d"/>
  <path d="M238.15,114a7.54,7.54,0,0,1-4.34-1.38,1.18,1.18,0,0,1,.47-2.13,1.19,1.19,0,0,1,.89.19,5.35,5.35,0,0,0,5.42.4,6.84,6.84,0,0,0,4-5.38c0.34-3.34-1.84-7.08-6.46-11.1a1.18,1.18,0,0,1,1.56-1.78c5.23,4.55,7.67,9,7.26,13.11a9.24,9.24,0,0,1-5.35,7.29,8.24,8.24,0,0,1-3.43.77h0Z" style="fill: #f5d264"/>
  <path d="M230.7,119.78a1.19,1.19,0,0,1-.68-0.21,1.18,1.18,0,0,1-.07-1.88c5-4.09,11.66-7.21,19.89-9.29a128.14,128.14,0,0,1,30.85-3.72,1.18,1.18,0,0,1,1.18,1.18,1.18,1.18,0,0,1-1.18,1.18,125.77,125.77,0,0,0-30.27,3.65c-7.88,2-14.26,5-19,8.82A1.18,1.18,0,0,1,230.7,119.78Z" style="fill: #f5d264"/>
  <path d="M272.08,107.24a1.18,1.18,0,0,1-.83-2c8.16-7.94,19.15-13.92,32.67-17.78l0.9-.26c11.74-3.36,23.87-6.83,36.31-3.43a1.19,1.19,0,0,1,.42.2,1.17,1.17,0,0,1,.31.35,1.18,1.18,0,0,1-.09,1.31,1.19,1.19,0,0,1-1.26.41c-11.79-3.23-23.61.15-35,3.42l-0.9.26c-13.13,3.75-23.79,9.54-31.67,17.2a1.19,1.19,0,0,1-.83.34h0Z" style="fill: #f5d264"/>
  <path d="M239.1,159a1.18,1.18,0,0,1-.53-2.24c1.22-.6,2.5-1.18,3.74-1.73a57.26,57.26,0,0,0,6.3-3.13,446.51,446.51,0,0,0,82.34-64.44,1.18,1.18,0,0,1,1.67,1.67,448.91,448.91,0,0,1-82.78,64.78,59.08,59.08,0,0,1-6.56,3.27c-1.22.54-2.47,1.11-3.65,1.69a1.19,1.19,0,0,1-.53.13h0Z" style="fill: #f5d264"/>
  <path d="M227.3,185.89a1.19,1.19,0,0,1-.56-0.14,1.18,1.18,0,0,1-.54-1.49,67,67,0,0,0,3.88-13.15,1.18,1.18,0,0,1,2.33.43,69.28,69.28,0,0,1-4,13.62A1.18,1.18,0,0,1,227.3,185.89Z" style="fill: #f5d264"/>
  <path d="M227.66,186a1.18,1.18,0,0,1-.68-2.15c9.42-6.59,17.55-18.66,20.73-30.74a1.18,1.18,0,0,1,.55-0.72,1.19,1.19,0,0,1,1.62.42,1.17,1.17,0,0,1,.12.9,60.56,60.56,0,0,1-8.14,17.85,53.59,53.59,0,0,1-13.52,14.22,1.19,1.19,0,0,1-.68.21h0Z" style="fill: #f5d264"/>
  <path d="M235.53,82.49a1.19,1.19,0,0,1-.72-0.24,1.18,1.18,0,0,1,.12-2,129.86,129.86,0,0,1,50.61-17,1.19,1.19,0,0,1,.89.24,1.18,1.18,0,0,1-.62,2.11,127.49,127.49,0,0,0-49.67,16.73,1.18,1.18,0,0,1-.6.16h0Z" style="fill: #f5d264"/>
  <path d="M246.64,109.63a1.19,1.19,0,0,1-1.12-.8,1.18,1.18,0,0,1,.4-1.32,244.69,244.69,0,0,0,36.92-35,1.18,1.18,0,1,1,1.8,1.53,247.06,247.06,0,0,1-37.27,35.3,1.18,1.18,0,0,1-.72.25h0Z" style="fill: #f5d264"/>
  <path d="M192.68,105.7a1.19,1.19,0,0,1-.56-0.14,1.18,1.18,0,0,1-.62-0.94,1.19,1.19,0,0,1,.09-0.57,40.49,40.49,0,0,1,19.68-20.23,1.19,1.19,0,0,1,1.56.57,1.18,1.18,0,0,1-.55,1.56,38.09,38.09,0,0,0-18.51,19A1.19,1.19,0,0,1,192.68,105.7Z" style="fill: #4c9d80"/>
  <path d="M227.66,153.43a1.18,1.18,0,0,1-1-.49,1.18,1.18,0,0,1-.16-1.06,69.07,69.07,0,0,0,3.11-30.56c-0.84-6.66-2.55-11.49-5.37-15.18a1.18,1.18,0,0,1,1-1.9,1.19,1.19,0,0,1,.8.34,4.69,4.69,0,0,0,8-4.18,5.4,5.4,0,0,0-.24-0.93l-0.06,0a5.62,5.62,0,0,1-5.13.16,2.63,2.63,0,0,1-1.33-2.38,2.69,2.69,0,0,1,1.49-2.36,4.74,4.74,0,0,1,4.51.23,6.4,6.4,0,0,1,1.19,1,10.24,10.24,0,0,0,3.61-9.25c-0.56-2.9-2.75-4.73-6.17-5.16-6.48-.81-14.26,2-18.32,3.68-0.42.18-.85,0.37-1.27,0.57a1.19,1.19,0,0,1-1.32-.18,1.17,1.17,0,0,1-.28-0.37,1.16,1.16,0,0,1-.11-0.45,1.18,1.18,0,0,1,.7-1.13c0.45-.21.9-0.41,1.35-0.6,4.28-1.82,12.52-4.73,19.55-3.85,4.46,0.56,7.45,3.13,8.21,7.06a11.63,11.63,0,0,1-1.14,7.28,13.58,13.58,0,0,1-3.47,4.39,7.72,7.72,0,0,1,.58,1.91,6.8,6.8,0,0,1-6.51,8.17,7.82,7.82,0,0,1-1.51,0A37.67,37.67,0,0,1,232,121a71.44,71.44,0,0,1-3.22,31.61,1.18,1.18,0,0,1-.43.58,1.19,1.19,0,0,1-.69.22h0Zm3.06-56.62a1.85,1.85,0,0,0-.85.18,0.33,0.33,0,0,0-.24.32,0.3,0.3,0,0,0,.18.31,3.27,3.27,0,0,0,2.65-.14,4,4,0,0,0-.47-0.35,2.45,2.45,0,0,0-1.26-.33h0Z" style="fill: #f5d264"/>
  <path d="M172.57,195.75a42.9,42.9,0,0,1-10.86-1.35,31.41,31.41,0,0,1-18.16-12.28,46.17,46.17,0,0,1-7.2-35.87,50.78,50.78,0,0,1,13-23.82,58,58,0,0,1,23-14.81c5.23-1.8,13.24-3.93,28.9-4.44a1.18,1.18,0,0,1,1.22,1.14,1.17,1.17,0,0,1-.32.85,1.18,1.18,0,0,1-.83.37c-15.34.5-23.13,2.57-28.2,4.31a55.6,55.6,0,0,0-22.09,14.21,48.41,48.41,0,0,0-12.41,22.71,43.77,43.77,0,0,0,6.83,34,28.69,28.69,0,0,0,16.82,11.35,44.56,44.56,0,0,0,20.93.06,58.81,58.81,0,0,0,37.74-28,68,68,0,0,0,5.57-12.31,1.18,1.18,0,0,1,.6-0.68,1.2,1.2,0,0,1,.45-0.12,1.21,1.21,0,0,1,.46.06,1.18,1.18,0,0,1,.4.23,1.18,1.18,0,0,1,.4.81,1.18,1.18,0,0,1-.06.46A70.32,70.32,0,0,1,223,165.37a61.19,61.19,0,0,1-39.27,29.11,51,51,0,0,1-11.19,1.27h0Z" style="fill: #4c9d80"/>
  <path d="M187.93,267.2c-5.42,0-10.68-2.45-15.61-7.27-4.65-4.55-8.89-11.08-12.58-19.4a1.18,1.18,0,0,1,.6-1.56,1.18,1.18,0,0,1,.91,0,1.18,1.18,0,0,1,.66.63c7.23,16.29,16.48,25.27,26,25.27,5.11,0,10.11-2.53,14.85-7.51s8.94-12,12.59-21.11c7.57-18.8,11.74-43.82,11.74-70.44s-4.17-51.65-11.74-70.45c-3.65-9.07-7.89-16.17-12.59-21.11s-9.74-7.51-14.85-7.51c-13.91,0-26.92,19.11-34,49.87a1.18,1.18,0,0,1-.52.74,1.2,1.2,0,0,1-.43.16,1.18,1.18,0,0,1-1.35-1.43c3.5-15.29,8.58-28.14,14.69-37.16,6.44-9.51,13.91-14.54,21.58-14.54,11.3,0,21.83,10.69,29.64,30.1,7.68,19.07,11.91,44.4,11.91,71.32s-4.23,52.25-11.91,71.32C209.76,256.51,199.23,267.2,187.93,267.2Z" style="fill: #2fa761"/>
  <g style="clip-path: url(#a)">
    <g>
      <path d="M393.19,9C378.73,17.27,358,45.53,378,59.3c10.45,7.19,24.42.46,32.44-7.28,6.48-6.25,12.43-13.65,14.16-22.49C428.41,10.27,409.21-.22,393.19,9Z" style="fill: #f4d163"/>
      <path d="M367.56,47.32a22.24,22.24,0,0,1-.21-4.16C367.95,28.35,382,12.57,392,6.87c8.86-5.08,19.42-4.88,26.92.52,6.88,4.95,9.91,13.4,8.11,22.61-2,10.43-9.46,18.56-14.86,23.77a41.94,41.94,0,0,1-16.29,9.81C388.65,65.76,382,65,376.67,61.3A20.35,20.35,0,0,1,367.56,47.32ZM422.49,22a15.64,15.64,0,0,0-6.41-10.64c-6-4.29-14.48-4.39-21.69-.25-10.12,5.8-21.72,20.49-22.2,32.29-0.23,5.79,2.2,10.48,7.22,13.94,8.86,6.1,21.45.63,29.39-7S420.91,36,422.26,29.06a20.91,20.91,0,0,0,.23-7.1h0Z" style="fill: #f5d264"/>
      <path d="M401.09,34.7a9.55,9.55,0,0,0,.55-5.35,10.32,10.32,0,0,0,3.19-2.24c2.36-2.44,3.37-5.53,2.25-7.62a4.82,4.82,0,0,0-.91-1.17l3.15-4.22c2-2.62-1-4.32-2.95-1.7l-3,4.05c-0.47-.25-0.94-0.5-1.37-0.76l0,0,2.9-4c1.9-2.64-1-4.35-2.95-1.7l-2.87,4L395.87,12c-1.88-1.12-4.86,3-3,4.09l1.88,1.11L382.9,33.47c-0.81-.49-1.62-1-2.42-1.51-1.84-1.18-4.82,2.92-3,4.09q1.77,1.13,3.58,2.2-1.77,2.48-3.48,5c-0.76,1.13-.85,2.42,0,2.9s2.2-.06,3-1.19c1.14-1.68,2.31-3.35,3.49-5l1.46,0.8,0.07,0-3.7,5c-2,2.62,1,4.32,3,1.7l3.86-5.18a7.24,7.24,0,0,0,5.2-.06A13.75,13.75,0,0,0,401.09,34.7ZM394.6,23.18l3.1-4.25c1.58,0.93,3.15,1.88,4.66,2.9a2,2,0,0,1,1,1.18,1.7,1.7,0,0,1-.53,1.29,4.25,4.25,0,0,1-1.61,1.14,5.84,5.84,0,0,1-2,.42ZM392.83,38.3a5.44,5.44,0,0,1-2.52-.71c-1.07-.52-2.1-1.1-3.13-1.67l-1.32-.74,5.77-7.91,5,2.9a4.17,4.17,0,0,1,.53,4.65c-0.8,1.76-2.54,3.45-4.35,3.48h0Z" style="fill: #fff"/>
    </g>
  </g>
</svg>
