<?xml version="1.0" standalone="no"?>
<!DOCTYPE svg PUBLIC "-//W3C//DTD SVG 20010904//EN"
 "http://www.w3.org/TR/2001/REC-SVG-20010904/DTD/svg10.dtd">
<svg version="1.0" xmlns="http://www.w3.org/2000/svg"
 width="512.000000pt" height="512.000000pt" viewBox="0 0 512.000000 512.000000"
 preserveAspectRatio="xMidYMid meet">
<metadata>
Created by potrace 1.11, written by Peter Selinger 2001-2013
</metadata>
<g transform="translate(0.000000,512.000000) scale(0.100000,-0.100000)"
fill="#000000" stroke="none">
<path d="M2940 5105 c-73 -20 -151 -54 -215 -93 -85 -51 -222 -192 -268 -277
-35 -63 -73 -161 -83 -208 -2 -10 -6 -27 -9 -37 -16 -51 -13 -209 6 -296 100
-462 585 -737 1025 -581 242 87 429 287 498 537 31 108 34 214 12 350 -8 50
-55 170 -91 232 -50 84 -106 150 -180 210 -33 27 -66 53 -73 59 -17 14 -177
89 -200 94 -9 2 -37 8 -62 14 -62 15 -305 12 -360 -4z m335 -60 c214 -43 414
-205 504 -409 74 -168 75 -395 4 -566 -92 -221 -290 -379 -527 -421 -97 -16
-263 -7 -351 21 -174 55 -317 170 -407 330 -111 197 -114 474 -7 680 96 185
306 341 494 367 22 3 42 7 45 10 6 6 204 -3 245 -12z"/>
<path d="M3087 5004 c-1 -1 -26 -5 -55 -8 -197 -23 -393 -165 -481 -349 -60
-123 -70 -172 -66 -317 4 -169 40 -273 134 -390 132 -164 319 -249 536 -244
181 3 337 71 459 199 122 128 177 274 171 460 -3 128 -5 139 -44 233 -88 212
-286 376 -493 407 -44 7 -156 13 -161 9z m-37 -289 l0 -72 28 5 c28 4 29 6 29
60 1 32 1 62 2 68 1 7 19 12 41 12 l40 1 0 -70 c0 -60 3 -70 23 -69 1 0 27 -7
57 -16 94 -28 134 -69 144 -148 3 -28 -1 -43 -19 -65 l-24 -28 37 -24 c79 -52
103 -137 63 -226 -30 -65 -94 -101 -191 -107 l-45 -3 -1 -59 c-1 -32 -2 -64
-3 -70 0 -6 -19 -10 -41 -10 l-40 0 0 72 c0 74 -1 76 -51 65 -3 0 -6 -25 -6
-53 -2 -89 0 -85 -40 -84 l-38 1 -5 70 -5 70 -75 0 c-41 0 -81 4 -87 8 -7 5
-13 21 -13 38 0 27 2 29 39 29 22 0 43 6 48 13 15 24 2 412 -15 429 -5 5 -32
9 -59 10 l-51 0 1 39 c0 21 6 40 11 42 6 3 44 4 84 3 41 0 73 3 73 9 1 6 3 33
4 60 1 28 3 56 4 63 1 9 14 12 41 10 l40 -2 0 -71z"/>
<path d="M3082 4494 l3 -89 55 0 c87 0 119 22 122 85 3 66 -15 80 -114 87
l-69 5 3 -88z"/>
<path d="M3080 4226 l0 -93 78 2 c107 4 161 35 162 95 0 62 -54 90 -172 90
l-68 0 0 -94z"/>
<path d="M1650 3847 c-3 -3 -23 -7 -45 -10 -134 -19 -292 -107 -403 -225 -60
-64 -148 -199 -137 -210 3 -4 18 -7 31 -7 20 -1 34 13 70 67 87 130 251 250
394 289 25 7 52 14 60 17 8 2 71 4 140 5 138 0 195 -12 315 -68 117 -53 218
-139 299 -252 21 -29 41 -53 44 -54 4 0 14 -2 23 -4 38 -7 38 11 1 72 -113
188 -292 317 -508 366 -57 14 -274 24 -284 14z"/>
<path d="M1590 3716 c-99 -28 -200 -85 -267 -149 -64 -61 -130 -156 -115 -166
12 -7 384 -6 404 1 9 4 13 25 13 72 l-1 66 43 0 43 0 0 -69 c0 -71 8 -85 41
-72 11 4 16 20 16 56 1 89 -1 85 43 85 l40 0 0 -70 0 -70 33 -1 c17 0 127 -2
244 -2 l211 -2 -11 22 c-24 44 -104 131 -162 176 -126 96 -242 137 -395 142
-85 3 -119 -1 -180 -19z"/>
<path d="M670 3184 c-189 -39 -370 -189 -448 -371 -53 -125 -52 -94 -49 -1238
l2 -1060 24 -70 c13 -38 35 -87 48 -107 12 -21 23 -40 23 -44 0 -8 79 -104
105 -127 89 -79 215 -141 322 -157 46 -7 601 -10 1713 -8 l1645 3 65 22 c211
73 366 238 421 451 20 76 32 313 17 328 -4 3 -323 6 -709 6 -426 -1 -724 3
-758 9 -263 47 -450 252 -488 534 -8 66 -8 437 1 500 11 78 56 202 96 264 78
121 210 219 330 247 19 4 42 10 50 13 8 3 343 6 745 8 401 2 731 6 734 8 7 8
5 203 -3 260 -10 70 -48 176 -88 242 -31 52 -152 183 -169 183 -4 0 -14 6 -21
13 -17 17 -134 72 -173 82 -16 4 -39 10 -50 13 -11 3 -762 6 -1670 7 -1342 2
-1662 0 -1715 -11z"/>
<path d="M3187 2204 c-186 -43 -344 -204 -381 -388 -8 -38 -12 -127 -11 -236
2 -148 6 -184 23 -233 65 -181 209 -307 388 -340 51 -9 231 -12 684 -11 338 1
626 4 640 7 188 39 323 152 392 325 19 50 22 80 26 245 5 224 -8 301 -66 395
-77 124 -138 173 -284 229 -38 15 -118 17 -698 18 -515 2 -667 -1 -713 -11z
m211 -345 c54 -15 121 -74 152 -135 34 -65 35 -179 3 -240 -85 -160 -291 -197
-426 -75 -163 147 -84 419 133 462 40 7 76 4 138 -12z"/>
</g>
</svg>
