<svg width="376" height="370" viewBox="0 0 376 370" fill="none" xmlns="http://www.w3.org/2000/svg">
<path d="M113.601 332.865C111.263 337.498 108.67 342.022 105.858 346.437C105.127 347.568 104.397 348.662 103.666 349.793C102.936 350.851 102.169 351.945 102.644 353.295C103.082 354.499 104.36 355.192 105.347 355.922C106.515 356.761 107.757 357.527 109.035 358.22C110.862 359.242 112.505 356.433 110.679 355.411C109.656 354.828 108.634 354.207 107.648 353.551C107.209 353.259 106.771 352.967 106.369 352.639C106.223 352.529 106.077 352.42 105.931 352.31C105.931 352.274 105.931 352.274 105.967 352.237L106.187 351.909C107.501 349.975 108.78 348.005 109.985 345.999C112.396 342.095 114.624 338.119 116.669 334.033C120.686 326.043 124.047 317.688 126.676 309.115C132.411 290.326 134.273 270.589 134.31 251.035C134.31 239.36 133.689 227.722 132.776 216.085C132.593 214.005 129.343 213.969 129.489 216.085C131.169 237.098 131.936 258.295 129.489 279.309C127.297 297.915 122.111 316.12 113.601 332.865Z" fill="#1B1D20"/>
<path d="M130.365 102.697C129.489 102.843 129.014 103.937 129.233 104.704C129.488 105.652 130.365 105.98 131.242 105.835C137.049 104.886 140.007 98.4285 138.437 93.1386C136.647 87.0824 130.803 83.6896 124.85 82.7775C123.973 82.6316 123.097 82.9964 122.841 83.9085C122.622 84.6746 123.097 85.7691 123.973 85.915C128.539 86.6447 133.323 88.7607 135.077 93.3575C136.538 97.2611 134.748 102.004 130.365 102.697Z" fill="#1B1D20"/>
<path d="M84.6742 77.8158C88.911 74.7148 94.1338 72.6718 99.1741 71.3584C104.287 70.0086 109.583 69.4249 114.843 69.6438C120.869 69.8626 126.822 71.176 132.447 73.4379C133.287 73.7663 134.237 73.0731 134.456 72.307C134.712 71.3949 134.127 70.6288 133.324 70.3004C121.819 65.6307 108.743 65.1199 96.8366 68.6222C91.285 70.264 85.3682 72.6718 81.0584 76.5754C78.9765 78.436 77.2234 80.8804 76.8216 83.726C76.6756 84.857 76.7486 86.0244 77.0408 87.1554C76.0912 87.5567 75.105 87.958 74.1554 88.3958C65.1341 92.4453 56.8432 98.0636 49.3924 104.521C33.9064 117.983 21.5614 135.422 12.8323 153.918C3.4457 173.765 -1.52151 195.581 0.414241 217.544C2.27695 238.959 10.1295 259.973 23.3876 277.01C29.7062 285.146 37.4492 292.333 46.6166 297.222C56.0762 302.256 67.1064 304.737 77.8078 303.314C80.3644 302.986 82.9211 302.402 85.4047 301.636C87.4135 300.979 86.5369 297.842 84.5281 298.499C74.6668 301.673 64.0384 300.797 54.4327 297.222C45.1557 293.756 37.084 287.554 30.4001 280.33C16.5577 265.263 7.90158 245.453 4.65098 225.388C1.29081 204.629 4.32227 183.542 12.0288 164.06C19.3335 145.564 30.5097 128.089 44.4252 113.824C50.9994 107.075 58.3042 101.055 66.4124 96.2395C70.2839 93.9046 74.338 91.8616 78.5383 90.1469C78.7939 90.5118 79.0861 90.8401 79.4148 91.1684C81.6793 93.3209 84.7473 94.4154 87.8518 94.1235C91.4676 93.7952 94.6817 91.9711 97.3114 89.5632C97.7497 89.1619 97.8958 88.5417 97.7132 87.958C96.2157 83.653 91.4311 83.1788 87.5231 83.8355C85.3682 84.2003 83.2498 84.9664 81.168 85.6961L80.1088 86.0609C79.5244 82.9234 82.081 79.7129 84.6742 77.8158ZM85.7699 87.5202C87.5596 86.9729 89.3493 86.6081 91.212 86.7905C92.2346 86.8635 93.3668 87.1554 94.0608 87.9215C90.5545 90.6577 85.3682 92.2629 81.7889 88.8336C83.1037 88.3593 84.4186 87.9215 85.7699 87.5202Z" fill="#2FA761"/>
<path d="M232.705 82.595C232.558 82.0478 232.376 81.5005 232.12 80.9533C231.718 80.1142 230.367 78.2171 230.184 78.0347C224.56 71.5043 214.315 75.5904 209.275 80.9533C209.39 80.9533 209.159 80.9533 209.275 80.9533C199.628 90.1024 193.934 103.373 192.865 106.005C189.853 112.306 187.37 118.848 185.443 125.571C174.778 118.311 163.273 111.124 149.942 111.015C146.107 110.942 142.309 111.599 138.729 112.912C138.547 112.985 138.364 113.094 138.181 113.24C132.849 109.993 127.042 107.586 120.906 106.783C109.51 105.287 97.6037 110.103 90.9929 119.588C84.4552 128.928 82.1907 141.186 82.0812 152.35C82.0081 159.865 82.9577 167.307 84.4552 174.677C77.4792 177.741 71.8911 183.25 68.0926 189.854C63.4176 197.953 61.6645 207.329 61.5184 216.632C61.4818 221.849 61.8106 227.102 62.468 232.283C63.0889 237.427 63.8194 242.571 64.8785 247.642C66.9604 257.346 70.4301 266.686 75.1782 275.369C80.0358 284.38 85.9161 292.807 91.833 301.162C86.8658 303.205 84.7109 309.334 84.1265 314.514C83.323 322.541 84.2726 330.64 86.9388 338.301C88.4363 342.642 90.4085 346.765 92.8922 350.632C94.0244 352.383 96.8732 350.742 95.7045 348.99C91.7599 342.825 89.0937 335.966 87.8519 328.743C87.2675 325.204 87.0119 321.592 87.1579 317.98C87.2675 314.952 87.5962 311.888 88.8015 309.042C89.8242 306.598 91.6869 304.08 94.4992 303.789C95.5949 303.679 96.6906 302.439 95.9236 301.308C85.0396 285.985 73.9729 270.225 69.1883 251.801C66.7412 242.17 65.3168 232.319 64.8785 222.433C64.4403 213.239 65.1707 203.644 69.0422 195.18C72.3659 187.92 77.8079 181.353 85.1491 177.997C86.5005 183.871 88.1806 189.671 90.0068 195.399C90.6277 197.406 93.8052 196.53 93.1478 194.523C89.4224 182.703 86.1718 170.518 85.4779 158.077C84.857 146.877 86.2449 134.947 91.6138 124.915C93.9513 120.537 97.1654 116.67 101.512 114.116C106.406 111.161 112.067 109.702 117.765 109.847C129.014 110.249 139.387 116.998 147.312 124.513C156.553 133.233 163.675 143.886 172.221 153.225C173.171 154.283 174.705 153.517 174.961 152.35V152.496C174.742 153.079 174.376 153.335 174.961 152.824C175.253 152.569 175.545 152.35 175.837 152.094C176.86 151.255 177.883 150.453 178.905 149.65C181.754 147.424 184.603 145.236 187.452 143.047C191.323 140.091 195.231 137.063 199.176 134.181C199.76 133.744 200.381 133.306 200.966 132.868L202.646 131.482L203.486 130.861C205.969 129.11 208.599 127.432 211.557 126.556C212.251 126.374 212.945 126.228 213.676 126.155C213.968 126.119 214.26 126.082 214.552 126.082C214.844 126.082 215.137 126.082 215.392 126.082C217.182 126.119 218.935 126.556 220.542 127.323C222.441 128.198 224.122 125.389 222.186 124.513C219.556 123.237 216.634 122.653 213.712 122.908C213.493 122.945 213.237 122.945 213.018 122.981L212.872 123.018C212.58 123.054 212.324 123.091 212.032 123.164C209.549 123.711 207.175 124.696 204.983 126.046C204.362 126.411 203.705 126.812 203.12 127.213C202.536 127.614 201.952 127.979 201.367 128.381C200.783 128.782 200.199 129.22 199.614 129.657C197.861 130.934 196.181 132.248 194.464 133.525C188.584 137.939 182.74 142.39 176.97 146.914C175.801 147.826 174.632 148.738 173.463 149.686C165.939 141.222 159.438 131.883 151.403 123.857C148.335 120.756 145.011 117.947 141.469 115.393C157.393 110.723 172.879 120.938 185.553 129.621C186.429 130.205 187.707 129.621 187.963 128.636C189.905 121.388 192.487 114.36 195.704 107.609L195.755 107.629C195.764 107.606 195.885 107.298 196.113 106.76C197.134 104.66 198.213 102.587 199.358 100.544C199.334 100.422 206.047 87.7496 215.245 80.1416C216.376 79.2062 217.888 78.81 219.337 78.4357C226.928 76.4747 229.015 81.9745 229.271 82.5947C229.49 83.1054 229.636 83.6527 229.709 84.2364C229.709 84.2729 229.709 84.3093 229.709 84.3458C229.855 86.4253 233.142 86.4618 232.996 84.3458V84.2364C232.96 83.6895 232.851 83.1423 232.705 82.595Z" fill="#1B1D20"/>
<path d="M215.064 128.964C214.406 129.183 213.968 129.73 213.895 130.424C212.799 141.989 207.138 152.605 198.92 160.704C198.336 161.288 197.751 161.835 197.167 162.382C196.619 162.857 196.071 163.331 195.523 163.805C191.835 166.87 187.744 169.46 183.398 171.503C166.487 179.31 146.691 176.538 131.571 166.067C123.353 160.376 116.632 152.35 113.09 142.974C112.359 141.004 109.182 141.879 109.949 143.849C116.45 161.142 132.52 173.874 150.38 177.924C152.426 183.323 152.097 189.124 151.147 194.742C150.636 197.734 149.942 200.725 149.358 203.681C148.773 206.636 148.262 209.773 148.846 212.838C149.394 215.72 150.892 218.347 151.914 221.083C152.937 223.819 153.85 226.519 154.617 229.328C156.151 234.873 157.21 240.564 157.758 246.292C158.416 252.999 158.441 259.705 157.93 266.367C157.892 266.484 157.864 266.604 157.853 266.732C157.835 266.936 157.271 273.158 155.719 282.222C155.531 283.162 155.336 284.1 155.128 285.037C155.167 285.003 155.202 284.967 155.24 284.933C151.321 306.437 142.215 340.707 122.938 351.939C122.154 352.396 121.889 353.401 122.347 354.184C122.652 354.707 123.203 354.999 123.768 354.999C124.05 354.999 124.335 354.926 124.595 354.775C137.329 347.355 147.351 330.283 154.381 304.034C156.703 295.364 158.295 287.074 159.346 280.545C159.365 280.521 159.384 280.5 159.402 280.476C163.274 259.061 162.069 236.588 153.449 216.413C152.792 214.917 152.171 213.385 151.878 211.78C151.659 210.065 151.696 208.314 152.061 206.636C152.645 203.206 153.486 199.85 154.106 196.421C155.166 190.547 155.75 184.418 154.033 178.654C163.274 180.149 172.733 179.201 181.463 175.844C186.393 173.947 191.068 171.357 195.305 168.183C195.853 167.782 196.401 167.344 196.912 166.943C197.423 166.541 198.081 165.958 198.629 165.483C200.784 163.586 202.829 161.543 204.655 159.354C211.12 151.729 215.539 142.536 216.927 132.686C216.305 131.445 215.685 130.205 215.064 128.964Z" fill="#1B1D20"/>
<path d="M247.327 228.965C248.012 228.05 248.698 227.136 249.326 226.222C249.84 225.537 250.183 224.794 250.354 223.937C250.583 222.223 249.212 220.337 247.669 219.309C246.355 218.338 244.584 218.281 243.213 219.138C242.07 220.623 240.928 222.051 239.785 223.48L246.47 230.107L247.327 228.965Z" fill="#F4D164"/>
<path d="M239.5 216.11C239.557 215.481 239.557 214.796 239.386 214.167C239.214 213.539 238.929 212.967 238.529 212.453C238.243 212.053 237.843 211.825 237.386 211.767C236.872 211.825 236.415 212.11 236.129 212.567C234.929 213.824 233.844 215.195 232.701 216.567C233.901 217.766 235.101 218.966 236.3 220.109L239.5 216.11Z" fill="#F4D164"/>
<path d="M270.122 242.848C279.263 232.907 275.207 217.652 268.237 207.711C260.696 197.027 248.698 185.715 234.415 188.914C228.302 190.4 223.16 194.57 220.589 200.284C217.79 206.568 217.618 213.71 220.132 220.109C226.817 237.249 252.697 261.759 270.122 242.848ZM227.731 207.425C225.503 205.197 227.559 202.626 229.73 204.854L233.273 208.454C233.672 208.168 234.072 207.94 234.529 207.768C236.643 207.025 239.443 208.397 241.442 210.968C242.185 211.939 242.813 213.082 243.156 214.281C244.927 214.224 246.641 214.681 248.184 215.538C251.04 217.138 253.611 220.395 254.297 223.423C254.697 225.08 254.468 226.851 253.611 228.393L257.953 232.793C260.181 235.021 258.125 237.592 255.954 235.364L251.783 231.193L251.726 231.25C251.383 231.707 251.098 232.107 250.755 232.507C252.183 233.878 253.554 235.192 255.04 236.506C256.011 237.363 256.297 238.849 255.725 239.477C255.154 240.106 253.954 239.934 252.983 239.02C251.555 237.706 250.126 236.335 248.755 235.021C247.898 236.049 247.041 237.078 246.184 238.106C244.813 239.706 241.328 236.278 242.699 234.678C243.271 233.992 243.899 233.307 244.47 232.564L230.759 219.023C230.302 219.595 229.902 220.109 229.445 220.623C228.131 222.223 224.646 218.852 225.96 217.195L228.188 214.453C227.045 213.367 225.96 212.282 224.817 211.196C222.589 209.025 224.588 206.454 226.817 208.625C227.959 209.711 229.102 210.853 230.245 211.939L230.302 211.882C230.587 211.482 230.93 211.082 231.216 210.682C230.016 209.711 228.873 208.568 227.731 207.425Z" fill="#F4D164"/>
<path d="M230.188 212.11C229.045 210.968 227.903 209.882 226.76 208.797C224.532 206.625 222.475 209.196 224.76 211.368C225.903 212.453 227.046 213.539 228.131 214.624L225.903 217.367C224.589 218.966 228.017 222.394 229.388 220.795C229.845 220.28 230.245 219.709 230.702 219.195L244.414 232.735C243.842 233.421 243.214 234.164 242.643 234.849C241.271 236.449 244.757 239.82 246.128 238.277C246.985 237.249 247.842 236.221 248.699 235.192C250.127 236.563 251.498 237.877 252.926 239.192C253.898 240.049 255.097 240.334 255.669 239.649C256.24 238.963 255.897 237.535 254.983 236.678C253.555 235.364 252.126 233.992 250.698 232.678C251.041 232.278 251.327 231.821 251.669 231.421L251.727 231.364L255.954 235.592C258.182 237.82 260.182 235.249 257.954 233.021L253.612 228.622C254.412 227.136 254.697 225.365 254.297 223.651C253.612 220.623 251.041 217.367 248.184 215.767C246.699 214.853 244.928 214.396 243.214 214.453C242.871 213.253 242.3 212.11 241.557 211.082C239.558 208.511 236.815 207.083 234.644 207.882C234.187 208.054 233.787 208.282 233.387 208.568L229.845 204.969C227.617 202.74 225.617 205.311 227.846 207.54C228.988 208.682 230.131 209.825 231.273 210.968C230.988 211.368 230.645 211.767 230.359 212.167L230.188 212.11ZM243.214 219.138C244.585 218.281 246.356 218.338 247.67 219.309C249.213 220.337 250.584 222.223 250.355 223.937C250.184 224.794 249.841 225.537 249.327 226.222C248.699 227.194 248.013 228.051 247.327 228.965L246.413 230.107L239.729 223.48C240.929 222.051 242.071 220.623 243.214 219.138ZM236.13 212.567C236.415 212.167 236.872 211.882 237.387 211.767C237.844 211.825 238.244 212.053 238.529 212.453C238.929 212.967 239.215 213.539 239.386 214.167C239.558 214.796 239.558 215.481 239.5 216.11L236.301 220.166C235.101 218.966 233.902 217.824 232.702 216.624C233.844 215.195 234.93 213.824 236.13 212.567Z" fill="white"/>
<path d="M312.534 162.518C313.214 162.838 313.973 162.958 314.732 162.918C316.251 162.718 317.61 161.157 318.13 159.555C318.689 158.194 318.33 156.632 317.29 155.631L312.774 153.589L308.537 160.836C308.937 160.996 309.337 161.197 309.736 161.357C310.656 161.757 311.575 162.158 312.534 162.518Z" fill="#F4D164"/>
<path d="M320.848 151.187C321.368 150.906 321.807 150.546 322.127 150.066C322.407 149.745 322.527 149.345 322.447 148.904C322.327 148.424 321.847 148.184 321.488 147.984C320.129 147.223 318.69 146.542 317.251 145.901C316.491 147.183 315.732 148.504 314.973 149.785L319.169 151.667C319.769 151.667 320.328 151.467 320.848 151.187Z" fill="#F4D164"/>
<path d="M301.543 182.898C312.974 190.466 326.324 181.977 333.718 172.768C340.793 163.96 347.347 150.506 340.113 139.775C333.638 130.246 320.448 129.886 311.615 136.132C298.865 145.341 283.836 171.207 301.543 182.898ZM312.894 143.98C311.215 143.179 313.414 139.415 315.092 140.216L317.93 141.577C318.649 140.376 319.329 139.175 320.048 137.934C321.447 135.491 324.125 136.732 322.726 139.135C322.007 140.376 321.327 141.577 320.608 142.818L320.648 142.858C321.048 143.059 321.447 143.219 321.887 143.379L324.125 139.655C325.564 137.253 328.242 138.454 326.803 140.856L324.485 144.7C324.805 144.941 325.125 145.261 325.364 145.621C326.483 147.303 325.884 150.026 324.085 152.308C323.366 153.189 322.527 153.95 321.567 154.51C322.007 156.032 322.007 157.633 321.567 159.115C320.808 161.917 318.57 164.88 316.051 166.122C314.693 166.842 313.094 167.003 311.615 166.602C310.656 168.204 309.696 169.765 308.737 171.367C307.298 173.769 304.62 172.568 306.059 170.166L308.777 165.601L308.697 165.561C308.257 165.401 307.818 165.201 307.378 165.001C306.499 166.522 305.659 168.044 304.82 169.565C304.261 170.606 303.101 171.167 302.382 170.846C301.663 170.526 301.583 169.405 302.142 168.364C302.982 166.842 303.821 165.321 304.7 163.799C303.621 163.319 302.542 162.758 301.463 162.238C299.784 161.397 301.982 157.633 303.661 158.474C304.38 158.834 305.14 159.195 305.859 159.555L314.613 144.66C314.053 144.5 313.453 144.22 312.894 143.98Z" fill="#F4D164"/>
<path d="M303.661 158.554C301.983 157.713 299.784 161.437 301.463 162.318C302.542 162.838 303.621 163.359 304.701 163.879C303.821 165.401 302.982 166.922 302.143 168.444C301.583 169.485 301.623 170.566 302.382 170.926C303.142 171.287 304.261 170.686 304.821 169.645C305.66 168.124 306.499 166.602 307.379 165.081C307.818 165.281 308.258 165.441 308.698 165.641L308.778 165.681L306.02 170.246C304.581 172.648 307.219 173.849 308.698 171.447C309.657 169.885 310.616 168.284 311.575 166.682C313.054 167.083 314.653 166.882 316.012 166.202C318.49 164.96 320.768 161.997 321.528 159.195C321.967 157.673 321.967 156.072 321.528 154.59C322.527 154.03 323.366 153.269 324.086 152.388C325.884 150.106 326.484 147.383 325.365 145.701C325.125 145.341 324.805 145.021 324.485 144.78L326.804 140.896C328.243 138.494 325.605 137.293 324.126 139.695L321.887 143.419C321.448 143.259 321.048 143.059 320.648 142.898L320.608 142.858C321.328 141.617 322.047 140.416 322.727 139.175C324.126 136.772 321.448 135.531 320.049 137.974C319.369 139.175 318.65 140.416 317.93 141.617L315.093 140.256C313.414 139.455 311.176 143.219 312.894 144.02C313.454 144.3 314.013 144.54 314.573 144.82L305.82 159.715C305.14 159.275 304.421 158.914 303.661 158.554ZM317.251 145.941C318.69 146.582 320.089 147.263 321.488 148.024C321.847 148.224 322.327 148.464 322.447 148.944C322.487 149.345 322.367 149.785 322.127 150.106C321.807 150.586 321.368 150.946 320.848 151.227C320.329 151.507 319.769 151.667 319.209 151.747L315.013 149.865C315.732 148.544 316.492 147.263 317.251 145.941ZM312.774 153.589L317.291 155.631C318.37 156.632 318.69 158.194 318.13 159.555C317.611 161.117 316.252 162.718 314.733 162.918C313.974 162.958 313.214 162.838 312.535 162.518C311.575 162.158 310.656 161.757 309.737 161.357C309.337 161.197 308.937 160.996 308.538 160.836L312.774 153.589Z" fill="white"/>
<path d="M296.826 132.328L300.303 134.891C301.143 135.531 302.462 135.051 302.941 134.21C303.501 133.209 303.101 132.168 302.262 131.567L298.784 129.005C297.945 128.364 296.626 128.844 296.146 129.685C295.547 130.646 295.987 131.687 296.826 132.328Z" fill="#F4D164"/>
<path d="M307.298 120.676C306.379 121.237 306.099 122.398 306.618 123.319L308.537 126.522C309.057 127.483 310.216 127.843 311.135 127.323C312.094 126.802 312.454 125.641 311.934 124.72C311.894 124.68 311.894 124.64 311.854 124.56C311.215 123.479 310.575 122.438 309.936 121.357C309.416 120.476 308.217 120.156 307.298 120.676Z" fill="#F4D164"/>
<path d="M320.408 119.395C320.248 120.837 320.128 122.278 319.968 123.719C319.848 124.76 320.927 125.641 321.887 125.641C323.006 125.641 323.725 124.76 323.805 123.719L324.245 119.395C324.365 118.354 323.286 117.473 322.326 117.473C321.207 117.473 320.528 118.354 320.408 119.395Z" fill="#F4D164"/>
<path d="M194.197 39.5021C191.782 44.2455 190.739 49.9158 189.367 55.041C186.678 65.1276 184.757 75.3233 182.452 85.4645C180.641 93.3157 178.171 102.639 181.409 110.436C183.989 116.706 190.959 118.614 197.16 119.759C200.179 120.304 203.197 120.686 206.271 120.959C207.368 121.177 208.466 121.286 209.563 121.395C210.387 121.449 211.21 121.504 212.033 121.504C213.625 121.667 215.216 121.776 216.808 121.995C221.473 122.54 226.028 122.54 230.309 120.359C232.63 119.158 234.625 117.418 236.126 115.288C237.608 113.162 238.157 110.599 238.815 108.091C241.998 95.4421 244.413 82.6293 246.773 69.8711C247.816 64.4733 249.078 59.1847 250.615 53.8415C251.273 51.5515 251.822 49.4797 251.438 47.0262C251.009 44.6909 250.072 42.4768 248.694 40.538C246.059 36.8305 242.712 34.2134 238.157 33.3956C234.425 32.7413 230.638 32.6868 226.906 32.1961C219.332 31.1601 211.045 29.7971 203.581 32.1415C199.63 33.3956 196.063 35.7945 194.197 39.5021ZM217.302 83.7198C211.649 88.027 206.161 92.4979 200.892 97.1868C198.148 99.6403 194.032 95.6057 196.776 93.1521C202.429 88.1361 208.301 83.3381 214.393 78.7582C215.655 77.8313 217.631 78.5401 218.344 79.7941C219.223 81.2663 218.564 82.7929 217.302 83.7198ZM228.113 97.4594C229.321 92.0072 230.473 86.5549 231.626 81.1027C233.931 70.0346 236.181 58.9666 238.541 47.953C239.09 45.2269 239.638 42.2282 238.87 39.5566C239.786 39.8737 240.627 40.3748 241.34 41.0287C242.931 42.4157 244.204 44.1263 245.072 46.0448C246.005 48.1711 245.675 49.8068 245.017 51.9877C243.425 57.3854 242.108 62.8377 241.065 68.3444C239.144 78.4311 237.278 88.5177 235.028 98.5499C234.479 101.003 233.876 103.402 233.272 105.856C232.723 108.037 232.394 110.545 231.022 112.399C228.936 115.179 225.534 116.488 222.186 116.597C223.377 114.859 224.284 112.945 224.875 110.926C226.357 106.565 227.125 101.93 228.113 97.4594ZM223.723 56.404C224.711 57.4399 224.985 59.5118 223.723 60.4387L198.807 79.6851C197.599 80.612 195.898 80.8846 194.691 79.6851C193.703 78.6492 193.428 76.5773 194.691 75.6504L219.662 56.404C220.869 55.4771 222.515 55.2045 223.723 56.404ZM205.447 39.9382C205.93 39.6736 206.476 39.544 207.027 39.5632C207.578 39.5824 208.113 39.7497 208.576 40.0473C209.442 40.2714 210.238 40.7084 210.89 41.3182C211.543 41.9279 212.03 42.6909 212.307 43.5367C213.24 46.6445 211.759 50.243 208.63 51.388C205.502 52.5329 201.935 50.8973 201.112 47.6804C200.289 44.4636 202.703 41.3013 205.447 39.9382Z" fill="#F4D164"/>
<path d="M194.745 79.7397C195.953 80.9392 197.599 80.6666 198.861 79.7397L223.777 60.4933C225.04 59.5119 224.765 57.44 223.777 56.4586C222.57 55.2591 220.923 55.5317 219.716 56.4586L194.8 75.705C193.483 76.6319 193.757 78.7038 194.745 79.7397Z" fill="white"/>
<path d="M214.393 78.7583C208.356 83.3381 202.484 88.1361 196.776 93.1522C193.977 95.6057 198.093 99.6949 200.892 97.1868C206.161 92.4979 211.649 87.9726 217.357 83.7198C218.619 82.7929 219.223 81.2663 218.399 79.7942C217.686 78.5947 215.655 77.8314 214.393 78.7583Z" fill="white"/>
<path d="M208.631 51.4426C211.759 50.2976 213.241 46.6991 212.308 43.5913C212.032 42.7386 211.546 41.9678 210.894 41.3489C210.243 40.73 209.446 40.2826 208.576 40.0474C208.113 39.7498 207.578 39.5825 207.027 39.5633C206.476 39.5441 205.93 39.6737 205.448 39.9383C202.704 41.3559 200.234 44.5182 201.112 47.735C201.333 48.4872 201.708 49.1857 202.215 49.7865C202.721 50.3873 203.347 50.8774 204.054 51.2257C204.76 51.5741 205.531 51.7732 206.319 51.8105C207.107 51.8479 207.894 51.7226 208.631 51.4426Z" fill="white"/>
<path d="M181.574 33.7773C184.099 36.5034 188.16 32.4142 185.69 29.6881L177.842 21.2371C175.318 18.511 171.256 22.6002 173.781 25.2718L181.574 33.7773Z" fill="#F4D164"/>
<path d="M220.1 16.2755C220.869 12.2954 221.637 8.26076 222.405 4.2261C223.119 0.627622 217.521 -0.953528 216.807 2.69947C216.039 6.67961 215.271 10.7143 214.502 14.7489C213.844 18.3474 219.387 19.9285 220.1 16.2755Z" fill="#F4D164"/>
<path d="M196.886 20.2012C197.819 21.4552 199.356 22.055 200.837 21.2371C202.1 20.5283 202.813 18.5655 201.88 17.3115C198.302 12.6093 195.402 7.43436 193.264 1.93618C191.947 -1.49873 186.349 0.0278993 187.666 3.46281C189.948 9.43759 193.051 15.0703 196.886 20.2012Z" fill="#F4D164"/>
<path d="M306.523 302.025L300.181 299.104C298.175 302.489 296.127 305.844 294.121 309.229L295.764 309.968C297.082 310.537 298.358 311.075 299.707 311.601C300.669 312.041 301.743 312.239 302.814 312.177C304.975 311.937 306.902 309.721 307.675 307.506C308.497 305.134 307.744 303.168 306.523 302.025Z" fill="#F4D164"/>
<path d="M311.52 295.84C312.243 295.461 312.871 294.949 313.331 294.314C313.76 293.722 313.941 293.208 313.831 292.741C313.656 292.098 313.038 291.714 312.472 291.433C310.555 290.365 308.618 289.413 306.609 288.472C305.55 290.285 304.419 292.111 303.36 293.924L309.22 296.625C309.978 296.464 310.796 296.219 311.52 295.84Z" fill="#F4D164"/>
<path d="M339.624 309.314C342.984 301.232 344.057 291.622 340.406 283.489C334.173 269.548 317.002 265.744 303.861 272.024C302.02 272.884 300.286 273.949 298.606 275.118C288.812 282.084 280.942 293.026 276.486 304.12C274.208 309.825 272.82 315.981 273.294 322.132C273.788 328.168 276.606 333.826 281.141 337.824C286.813 342.905 294.467 345.164 301.971 343.829C309.777 342.521 317.034 338.168 322.833 332.823C329.876 326.379 335.96 318.078 339.624 309.314ZM294.155 324.03C292.107 327.385 288.413 325.674 290.461 322.32C291.734 320.21 293.08 318.089 294.384 315.937L294.3 315.876L292.459 315.057C291.186 317.166 290.027 319.295 288.796 321.435C288.013 322.867 286.348 323.661 285.386 323.221C284.339 322.72 284.288 321.199 285.102 319.724C286.26 317.596 287.492 315.456 288.765 313.346C287.237 312.625 285.709 311.905 284.242 311.099C281.897 309.915 285.065 304.662 287.41 305.847C288.426 306.39 289.431 306.86 290.478 307.361C294.654 300.452 298.82 293.471 302.996 286.562C302.19 286.171 301.426 285.81 300.62 285.42C298.244 284.277 301.412 279.025 303.788 280.167L307.734 282.06C308.774 280.362 309.74 278.675 310.779 276.977C312.785 273.592 316.479 275.302 314.473 278.687C313.476 280.416 312.437 282.115 311.44 283.844L311.482 283.874C312.005 284.125 312.601 284.363 313.197 284.602C314.267 282.861 315.337 281.12 316.407 279.379C318.455 276.025 322.179 277.693 320.101 281.09L316.768 286.482C317.272 286.847 317.642 287.309 317.981 287.813C319.541 290.17 318.685 294.002 316.094 297.221C315.09 298.429 313.876 299.484 312.472 300.272C313.06 302.377 313.037 304.619 312.368 306.779C311.263 310.689 308.04 314.869 304.504 316.564C302.571 317.55 300.368 317.759 298.27 317.206L294.155 324.03Z" fill="#F4D164"/>
<path d="M342.134 328.299C343.212 330.436 344.795 332.229 346.819 333.503C347.942 334.253 349.51 334.035 350.307 332.935C351.074 331.878 350.916 330.15 349.763 329.443C348.453 328.687 347.461 327.58 346.737 326.281C346.17 325.031 344.706 324.486 343.444 324.99C342.15 325.536 341.566 327.049 342.134 328.299Z" fill="#F4D164"/>
<path d="M350.383 315.244L356.725 319.843C359.329 321.731 362.303 317.629 359.699 315.741L353.357 311.142C350.753 309.254 347.779 313.356 350.383 315.244Z" fill="#F4D164"/>
<path d="M365.703 293.056C365.851 291.615 364.797 290.593 363.452 290.327C360.991 289.833 358.421 289.841 355.962 290.316C352.776 290.91 353.516 295.899 356.733 295.263C358.798 294.89 360.878 294.849 362.923 295.299C364.268 295.565 365.563 294.31 365.703 293.056Z" fill="#F4D164"/>
<path d="M304.453 316.721C307.947 314.996 311.212 310.846 312.317 306.936C312.956 304.818 312.979 302.577 312.421 300.43C313.826 299.642 315.009 298.628 316.044 297.378C318.604 294.201 319.502 290.4 317.931 287.97C317.592 287.466 317.191 287.047 316.718 286.639L320.05 281.248C322.098 277.893 318.404 276.182 316.356 279.537C315.286 281.278 314.216 283.018 313.146 284.759C312.55 284.521 311.954 284.282 311.431 284.032L311.389 284.001C312.428 282.303 313.426 280.574 314.423 278.845C316.429 275.46 312.735 273.749 310.729 277.134C309.732 278.863 308.723 280.519 307.684 282.218L303.738 280.324C301.362 279.182 298.194 284.435 300.57 285.577C301.376 285.968 302.14 286.328 302.946 286.719C298.769 293.628 294.634 300.567 290.427 307.518C289.38 307.018 288.376 306.547 287.36 306.004C285.014 304.82 281.877 310.03 284.192 311.257C285.689 312.02 287.186 312.783 288.714 313.504C287.441 315.613 286.24 317.711 285.051 319.881C284.268 321.314 284.288 322.877 285.335 323.378C286.298 323.818 287.962 323.025 288.745 321.592C289.934 319.422 291.135 317.324 292.408 315.214L294.25 316.033L294.334 316.094C293.03 318.246 291.714 320.325 290.41 322.477C288.362 325.832 292.056 327.542 294.104 324.188L298.189 317.406C300.287 317.959 302.52 317.707 304.453 316.721ZM303.318 293.894C304.377 292.08 305.508 290.255 306.567 288.442C308.576 289.382 310.513 290.335 312.43 291.403C312.954 291.653 313.572 292.037 313.789 292.71C313.941 293.208 313.688 293.734 313.289 294.284C312.829 294.918 312.17 295.473 311.478 295.81C310.754 296.189 309.936 296.434 309.167 296.522L303.318 293.894ZM302.741 312.189C301.67 312.251 300.596 312.053 299.634 311.613C298.285 311.087 297.009 310.549 295.691 309.98L294.048 309.241C296.054 305.856 298.102 302.501 300.108 299.116L306.45 302.037C307.713 303.211 308.424 305.146 307.571 307.56C306.86 309.69 304.974 311.937 302.741 312.189Z" fill="white"/>
</svg>
