<svg width="32" height="32" viewBox="0 0 32 32" fill="none" xmlns="http://www.w3.org/2000/svg">
<path d="M16 0C7.17924 0 0 7.17924 0 16C0 24.8208 7.17924 32 16 32C24.8208 32 32 24.8208 32 16C32 7.17924 24.8208 0 16 0ZM16 2.66667C16.5242 2.66667 17.0673 2.88379 17.6875 3.46094C18.3077 4.03809 18.9496 4.96891 19.5 6.17969C19.9089 7.07933 20.2426 8.16933 20.5312 9.33333H11.4687C11.7574 8.16933 12.0911 7.07933 12.5 6.17969C13.0504 4.96891 13.6923 4.03809 14.3125 3.46094C14.9327 2.88379 15.4758 2.66667 16 2.66667ZM10.7839 3.72396C10.5329 4.15182 10.2917 4.59686 10.0729 5.07812C9.50282 6.33234 9.04528 7.77074 8.70052 9.33333H4.45833C5.8977 6.84151 8.11122 4.85736 10.7839 3.72396ZM21.2161 3.72396C23.8888 4.85736 26.1023 6.84151 27.5417 9.33333H23.2995C22.9547 7.77074 22.4972 6.33234 21.9271 5.07812C21.7083 4.59686 21.4671 4.15182 21.2161 3.72396ZM3.27604 12H8.2474C8.09066 13.2802 8 14.6159 8 16C8 17.3841 8.09066 18.7198 8.2474 20H3.27604C2.88142 18.7379 2.66667 17.3945 2.66667 16C2.66667 14.6055 2.88142 13.2621 3.27604 12ZM10.9635 12H21.0365C21.2104 13.2721 21.3333 14.5966 21.3333 16C21.3333 17.4034 21.2104 18.7279 21.0365 20H10.9635C10.7896 18.7279 10.6667 17.4034 10.6667 16C10.6667 14.5966 10.7896 13.2721 10.9635 12ZM23.7526 12H28.724C29.1186 13.2621 29.3333 14.6055 29.3333 16C29.3333 17.3945 29.1186 18.7379 28.724 20H23.7526C23.9093 18.7198 24 17.3841 24 16C24 14.6159 23.9093 13.2802 23.7526 12ZM4.45833 22.6667H8.70052C9.04528 24.2293 9.50282 25.6677 10.0729 26.9219C10.2917 27.4031 10.5329 27.8482 10.7839 28.276C8.11122 27.1426 5.8977 25.1585 4.45833 22.6667ZM11.4687 22.6667H20.5312C20.2426 23.8307 19.9089 24.9207 19.5 25.8203C18.9496 27.0311 18.3077 27.9619 17.6875 28.5391C17.0673 29.1162 16.5242 29.3333 16 29.3333C15.4758 29.3333 14.9327 29.1162 14.3125 28.5391C13.6923 27.9619 13.0504 27.0311 12.5 25.8203C12.0911 24.9207 11.7574 23.8307 11.4687 22.6667ZM23.2995 22.6667H27.5417C26.1023 25.1585 23.8888 27.1426 21.2161 28.276C21.4671 27.8482 21.7083 27.4031 21.9271 26.9219C22.4972 25.6677 22.9547 24.2293 23.2995 22.6667Z" fill="url(#paint0_linear)"/>
<defs>
<linearGradient id="paint0_linear" x1="16" y1="0" x2="16" y2="32" gradientUnits="userSpaceOnUse">
<stop stop-color="#676C73"/>
<stop offset="1" stop-color="#1B1D20"/>
</linearGradient>
</defs>
</svg>
