<svg width="27" height="30" viewBox="0 0 27 30" fill="none" xmlns="http://www.w3.org/2000/svg">
<path d="M2.3201 0.320312C2.05485 0.320382 1.79566 0.399554 1.57564 0.547705C1.35563 0.695857 1.1848 0.906257 1.08499 1.15201C0.985182 1.39776 0.960929 1.66769 1.01533 1.92729C1.06974 2.1869 1.20033 2.42438 1.39041 2.60937L13.781 15L1.39041 27.3906C1.26245 27.5135 1.16028 27.6606 1.0899 27.8235C1.01952 27.9863 0.982343 28.1616 0.980538 28.3389C0.978733 28.5163 1.01234 28.6923 1.07939 28.8565C1.14645 29.0208 1.24559 29.17 1.37103 29.2954C1.49647 29.4209 1.64568 29.52 1.80991 29.5871C1.97415 29.6541 2.15011 29.6877 2.3275 29.6859C2.50489 29.6841 2.68013 29.6469 2.84297 29.5765C3.00581 29.5062 3.15297 29.404 3.27583 29.276L16.6092 15.9427C16.8591 15.6926 16.9995 15.3536 16.9995 15C16.9995 14.6464 16.8591 14.3073 16.6092 14.0573L3.27583 0.723958C3.15158 0.596232 3.00298 0.494706 2.83883 0.425377C2.67468 0.356048 2.49829 0.320323 2.3201 0.320312ZM11.6534 0.320312C11.3882 0.320382 11.129 0.399554 10.909 0.547706C10.689 0.695858 10.5181 0.906257 10.4183 1.15201C10.3185 1.39776 10.2943 1.66769 10.3487 1.92729C10.4031 2.1869 10.5337 2.42438 10.7237 2.60937L23.1144 15L10.7237 27.3906C10.5958 27.5135 10.4936 27.6606 10.4232 27.8235C10.3529 27.9863 10.3157 28.1616 10.3139 28.339C10.3121 28.5163 10.3457 28.6923 10.4127 28.8565C10.4798 29.0208 10.5789 29.17 10.7044 29.2954C10.8298 29.4209 10.979 29.52 11.1432 29.5871C11.3075 29.6541 11.4834 29.6877 11.6608 29.6859C11.8382 29.6841 12.0135 29.6469 12.1763 29.5766C12.3391 29.5062 12.4863 29.404 12.6092 29.276L25.9425 15.9427C26.1924 15.6926 26.3329 15.3536 26.3329 15C26.3329 14.6464 26.1924 14.3073 25.9425 14.0573L12.6092 0.723958C12.4849 0.596232 12.3363 0.494706 12.1722 0.425377C12.008 0.356048 11.8316 0.320323 11.6534 0.320312V0.320312Z" fill="url(#paint0_linear)"/>
<defs>
<linearGradient id="paint0_linear" x1="13.6567" y1="0.320312" x2="13.6567" y2="29.686" gradientUnits="userSpaceOnUse">
<stop stop-color="#676C73"/>
<stop offset="1" stop-color="#1B1D20"/>
</linearGradient>
</defs>
</svg>
