<svg width="51" height="38" viewBox="0 0 51 38" fill="none" xmlns="http://www.w3.org/2000/svg">
<g clip-path="url(#clip0)">
<path d="M1.31641 38.0006V27.637C1.31641 24.5782 1.88538 21.3576 3.02334 17.975C4.1613 14.5925 5.74377 11.3538 7.77076 8.25914C9.79772 5.16442 12.1803 2.51954 14.9185 0.324463L22.8131 6.04605C20.6439 9.24872 18.7947 12.5953 17.2655 16.0858C15.7364 19.5764 14.9719 23.3728 14.9719 27.475V38.0006H1.31641ZM28.5207 38.0006V27.637C28.5207 24.5782 29.0896 21.3576 30.2276 17.975C31.3655 14.5925 32.948 11.3538 34.975 8.25914C37.002 5.16442 39.3845 2.51954 42.1227 0.324463L50.0173 6.04605C47.8481 9.24872 45.9989 12.5953 44.4698 16.0858C42.9407 19.5764 42.1761 23.3728 42.1761 27.475V38.0006H28.5207Z" fill="#858585"/>
</g>
<defs>
<clipPath id="clip0">
<rect width="50.07" height="38" fill="white"/>
</clipPath>
</defs>
</svg>
