<svg width="18" height="18" viewBox="0 0 18 18" fill="none" xmlns="http://www.w3.org/2000/svg">
<path d="M13.6673 0.333374C12.5986 0.333374 11.5952 0.749916 10.8392 1.50525L9.50586 2.83858C8.75053 3.59458 8.33398 4.59804 8.33398 5.66671C8.33398 6.50955 8.59625 7.30936 9.07617 7.98181L7.98242 9.07556C7.30989 8.59587 6.50965 8.33337 5.66732 8.33337C4.59865 8.33337 3.59519 8.74992 2.83919 9.50525L1.50586 10.8386C0.750526 11.5946 0.333984 12.598 0.333984 13.6667C0.333984 14.7354 0.750526 15.7388 1.50586 16.4948C2.26119 17.2508 3.26532 17.6667 4.33398 17.6667C5.40265 17.6667 6.40611 17.2502 7.16211 16.4948L8.49544 15.1615C9.25077 14.4055 9.66732 13.402 9.66732 12.3334C9.66732 11.966 9.61485 11.6077 9.52018 11.2631L8.32096 12.4623C8.2903 13.1016 8.0394 13.7315 7.55273 14.2188L6.2194 15.5521C5.1794 16.5921 3.4879 16.5921 2.44857 15.5521C1.40923 14.5121 1.40857 12.8206 2.44857 11.7813L3.7819 10.448C4.3019 9.92796 4.98529 9.66931 5.66862 9.66931C6.13646 9.66931 6.59975 9.79948 7.01497 10.043L5.19596 11.862C5.13198 11.9234 5.0809 11.997 5.04571 12.0784C5.01052 12.1599 4.99193 12.2475 4.99102 12.3362C4.99012 12.4249 5.00693 12.5129 5.04045 12.595C5.07398 12.6771 5.12355 12.7517 5.18627 12.8144C5.24899 12.8771 5.32359 12.9267 5.40571 12.9602C5.48783 12.9938 5.57581 13.0106 5.66451 13.0097C5.7532 13.0088 5.84082 12.9902 5.92224 12.955C6.00366 12.9198 6.07724 12.8687 6.13867 12.8047L12.8053 6.13806C12.9017 6.04442 12.9675 5.92386 12.9941 5.79218C13.0208 5.6605 13.007 5.52384 12.9546 5.40012C12.9023 5.2764 12.8138 5.17138 12.7007 5.09882C12.5876 5.02627 12.4553 4.98957 12.321 4.99353C12.1478 4.99869 11.9834 5.07108 11.8626 5.19535L10.0436 7.01436C9.44282 5.99229 9.57211 4.65718 10.4486 3.78129L11.7819 2.44796C12.3019 1.92796 12.984 1.66931 13.6673 1.66931C14.3506 1.66931 15.0327 1.92862 15.5527 2.44796C16.5927 3.48796 16.5927 5.17946 15.5527 6.21879L14.2194 7.55212C13.7327 8.03879 13.1022 8.28969 12.4629 8.32035L11.2637 9.51957C11.6083 9.61424 11.9667 9.66671 12.334 9.66671C13.4026 9.66671 14.4061 9.25016 15.1621 8.49483L16.4954 7.1615C17.2508 6.4055 17.6673 5.40204 17.6673 4.33337C17.6673 3.26471 17.2508 2.26125 16.4954 1.50525C15.7394 0.749916 14.736 0.333374 13.6673 0.333374Z" fill="#2FA761"/>
</svg>
