<svg width="24" height="24" viewBox="0 0 24 24" fill="none" xmlns="http://www.w3.org/2000/svg">
<path fill-rule="evenodd" clip-rule="evenodd" d="M5.33333 0H18.6667C21.612 0 24 2.388 24 5.33333V18.6667C24 21.612 21.612 24 18.6667 24H5.33333C2.388 24 0 21.612 0 18.6667V5.33333C0 2.388 2.388 0 5.33333 0ZM18.7333 9.14267V8.68533C19.3053 8.228 19.876 7.65733 20.336 6.96933C19.6507 7.31333 19.0787 7.42667 18.3933 7.54133C19.0787 7.08533 19.6507 6.51333 19.8787 5.71333C19.3067 6.056 18.6213 6.39867 17.8213 6.51333C17.2493 5.828 16.336 5.48533 15.4213 5.48533C13.592 5.48533 12.1067 6.972 12.1067 8.8C12.1067 8.98872 12.1414 9.14307 12.1727 9.28175C12.1982 9.39487 12.2213 9.49757 12.2213 9.6C9.47867 9.48667 7.07867 8.11467 5.47867 6.172C5.136 6.62933 5.02133 7.2 5.02133 7.772C5.02133 8.91467 5.592 9.82933 6.50667 10.6293C5.936 10.5147 5.47867 10.4 5.02133 10.172C5.02133 11.772 6.164 13.0293 7.64933 13.372C7.30667 13.4867 7.07733 13.4867 6.73467 13.4867C6.68709 13.4867 6.61977 13.4669 6.541 13.4438C6.42992 13.4113 6.29606 13.372 6.16267 13.372C6.62 14.6293 7.76267 15.6573 9.248 15.6573C8.10533 16.4573 6.61867 17.0293 5.13333 17.0293H4.33333C5.81867 17.9427 7.53333 18.5147 9.36133 18.5147C15.4187 18.5147 18.7333 13.4853 18.7333 9.14267Z" fill="#1B1D20"/>
</svg>
