<svg width="20" height="20" viewBox="0 0 20 20" fill="none" xmlns="http://www.w3.org/2000/svg">
<path d="M15.8967 8.38909L14.1533 7.38159L12.0525 9.96159L14.1933 12.5949L15.8958 11.6116C16.6067 11.2016 16.9967 10.6274 16.9967 9.99909C16.9967 9.37076 16.6075 8.79993 15.8967 8.38909Z" fill="#fafafa"/>
<path d="M4.60171 17.7925L10.9775 9.96252L4.68254 2.21752C4.66254 2.21669 4.64171 2.20752 4.62171 2.20752C3.65254 2.20752 3.00171 2.99502 3.00171 4.16835V15.835C3.00338 16.9975 3.64588 17.7809 4.60171 17.7925Z" fill="#fafafa"/>
<path d="M11.5149 10.6216L6.10742 17.2641L13.4616 13.0166L11.5149 10.6216Z" fill="#fafafa"/>
<path d="M13.4209 6.96169L6.24756 2.81836L11.5159 9.30086L13.4209 6.96169Z" fill="#fafafa"/>
</svg>
