<svg width="54" height="52" viewBox="0 0 54 52" fill="none" xmlns="http://www.w3.org/2000/svg">
<path d="M54 26.3061L46 18.446L46 24.3411L36 24.3411L36 28.2711L46 28.2711L46 34.1662L54 26.3061ZM32 4.6909C31.9991 4.4357 31.973 4.1812 31.9219 3.93099C31.9176 3.91017 31.9108 3.89028 31.9063 3.86958C31.7151 2.99068 31.2231 2.2027 30.5123 1.63701C29.8014 1.07131 28.9148 0.762082 28 0.760863L4 0.760862C3.74027 0.761715 3.48123 0.787423 3.22657 0.837621C3.20538 0.841802 3.18514 0.848456 3.16407 0.852972C2.26951 1.0408 1.46751 1.52419 0.891743 2.22258C0.315979 2.92097 0.00124468 3.79215 3.63985e-06 4.6909L1.71655e-06 47.9213C0.000869761 48.1765 0.0270356 48.431 0.0781267 48.6812C0.0823827 48.702 0.0891557 48.7219 0.0937517 48.7426C0.28492 49.6215 0.776921 50.4095 1.48774 50.9752C2.19856 51.5409 3.08525 51.8501 4 51.8513L28 51.8513C28.2597 51.8505 28.5188 51.8248 28.7734 51.7746C28.7946 51.7704 28.8149 51.7637 28.8359 51.7592C29.7305 51.5714 30.5325 51.088 31.1083 50.3896C31.684 49.6912 31.9988 48.82 32 47.9213L32 4.6909ZM28 8.62093L28 43.9912C26.9391 43.9912 25.9217 44.4053 25.1716 45.1423C24.4214 45.8793 24 46.879 24 47.9213L8 47.9213C8 46.879 7.57857 45.8793 6.82843 45.1423C6.07828 44.4053 5.06087 43.9912 4 43.9912L4 8.62093C5.06087 8.62093 6.07828 8.20688 6.82843 7.46985C7.57858 6.73283 8 5.73321 8 4.6909L24 4.6909C24 5.73321 24.4214 6.73283 25.1716 7.46985C25.9217 8.20688 26.9391 8.62093 28 8.62093ZM24 26.3061C24 21.9654 19.97 18.446 15 18.446C12.156 18.446 9.65 19.6205 8 21.4204L8 31.1918C9.65 32.9917 12.156 34.1662 15 34.1662C19.97 34.1662 24 30.6468 24 26.3061ZM18 10.5859C18 10.0648 17.7893 9.56498 17.4142 9.19647C17.0391 8.82796 16.5304 8.62093 16 8.62093C15.4696 8.62093 14.9609 8.82796 14.5858 9.19647C14.2107 9.56498 14 10.0648 14 10.5859C14 11.1071 14.2107 11.6069 14.5858 11.9754C14.9609 12.3439 15.4696 12.551 16 12.551C16.5304 12.551 17.0391 12.3439 17.4142 11.9754C17.7893 11.6069 18 11.1071 18 10.5859ZM18 42.0262C18 41.5051 17.7893 41.0053 17.4142 40.6367C17.0391 40.2682 16.5304 40.0612 16 40.0612C15.4696 40.0612 14.9609 40.2682 14.5858 40.6367C14.2107 41.0053 14 41.5051 14 42.0262C14 42.5474 14.2107 43.0472 14.5858 43.4157C14.9609 43.7842 15.4696 43.9912 16 43.9912C16.5304 43.9912 17.0391 43.7842 17.4142 43.4157C17.7893 43.0472 18 42.5474 18 42.0262Z" fill="url(#paint0_linear)"/>
<defs>
<linearGradient id="paint0_linear" x1="-3" y1="-0.712899" x2="31.6361" y2="52.4145" gradientUnits="userSpaceOnUse">
<stop stop-color="#676C73"/>
<stop offset="1" stop-color="#1B1D20"/>
</linearGradient>
</defs>
</svg>
