<svg width="28" height="34" viewBox="0 0 28 34" fill="none" xmlns="http://www.w3.org/2000/svg">
<path d="M14 0.266724C13.3008 0.266724 12.7333 0.83419 12.7333 1.53339V6.60006H15.2667V1.53339C15.2667 0.83419 14.6992 0.266724 14 0.266724ZM15.2667 6.60006V22.5422L18.1711 19.6378C18.6663 19.1426 19.467 19.1426 19.9622 19.6378C20.4575 20.1331 20.4575 20.9337 19.9622 21.429L14.8956 26.4956C14.6486 26.7426 14.3243 26.8667 14 26.8667C13.6757 26.8667 13.3514 26.7426 13.1044 26.4956L8.03774 21.429C7.54248 20.9337 7.54248 20.1331 8.03774 19.6378C8.53301 19.1426 9.33362 19.1426 9.82889 19.6378L12.7333 22.5422V6.60006H2.59998C1.20032 6.60006 0.0666504 7.73372 0.0666504 9.13339V30.6667C0.0666504 32.0664 1.20032 33.2001 2.59998 33.2001H25.4C26.7997 33.2001 27.9333 32.0664 27.9333 30.6667V9.13339C27.9333 7.73372 26.7997 6.60006 25.4 6.60006H15.2667Z" fill="white"/>
</svg>
