<svg width="44" height="48" viewBox="0 0 44 48" fill="none" xmlns="http://www.w3.org/2000/svg">
<path d="M22 0C12.796 0 3.22266 2.07422 3.22266 2.07422L3.21484 2.08203C2.30896 2.26337 1.49377 2.7527 0.907743 3.4669C0.321714 4.1811 0.000973736 5.07614 0 6V18C0 38.796 20.043 47.4883 20.043 47.4883C20.6407 47.8237 21.3146 47.9999 22 48C22.6828 47.9986 23.3538 47.8224 23.9492 47.4883H23.957C23.959 47.4883 44 38.796 44 18V6C44.0005 5.0737 43.6794 4.17595 43.0917 3.45999C42.504 2.74402 41.686 2.25423 40.7773 2.07422C40.7773 2.07422 31.204 0 22 0ZM22 8C25.31 8 28 10.69 28 14V18H30C31.104 18 32 18.896 32 20V30C32 31.104 31.104 32 30 32H14C12.896 32 12 31.104 12 30V20C12 18.896 12.896 18 14 18H16V14C16 10.69 18.69 8 22 8ZM22 12C20.898 12 20 12.898 20 14V18H24V14C24 12.898 23.102 12 22 12Z" fill="url(#paint0_linear)"/>
<defs>
<linearGradient id="paint0_linear" x1="22" y1="0" x2="22" y2="48" gradientUnits="userSpaceOnUse">
<stop stop-color="#676C73"/>
<stop offset="1" stop-color="#1B1D20"/>
</linearGradient>
</defs>
</svg>
