<svg width="410" height="370" viewBox="0 0 410 370" fill="none" xmlns="http://www.w3.org/2000/svg">
<path d="M376.653 366.001H303.115C303.113 366 303.108 366 303.106 366H46.349C43.5 366 43.5018 369.999 46.349 369.999H119.887C119.889 370 119.894 370 119.896 370H376.653C379.501 370 379.501 366.001 376.653 366.001Z" fill="#2FA761"/>
<path d="M130.183 217.329C124.061 224.476 119.034 232.494 115.266 241.119C111.66 249.4 109.226 258.143 108.034 267.097C86.6578 274.221 68.5385 288.771 56.96 308.112C55.6486 310.307 59.073 312.302 60.3806 310.115C69.1559 295.526 81.8468 283.694 97.0095 275.965C101.295 273.785 105.752 271.96 110.335 270.508C111.255 270.213 111.681 269.507 111.792 268.59C113.772 252.482 119.943 237.175 129.689 224.202C139.467 211.258 152.53 201.169 167.522 194.983C175.964 191.476 184.882 189.248 193.981 188.371C194.117 188.356 194.252 188.331 194.384 188.295C197.302 193.962 203.341 197.868 210.129 197.504C216.487 197.166 221.353 193.494 224.225 188.406C240.324 190.059 255.71 195.904 268.849 205.358C281.968 214.774 292.275 227.782 298.821 242.524C302.494 250.804 304.907 259.587 305.981 268.582C306.014 269.465 306.596 270.232 307.438 270.501C323.634 275.714 338.044 285.37 349.029 298.369C352.132 302.046 354.928 305.972 357.388 310.107C358.696 312.294 362.124 310.303 360.809 308.104C349.244 288.765 331.132 274.218 309.762 267.101C305.358 233.186 283.126 204.236 251.509 191.245C243.325 187.861 234.71 185.636 225.912 184.634C226.342 183.364 226.662 182.06 226.871 180.735C227.589 176.003 227.347 171.175 226.158 166.538C225.54 164.063 221.717 165.111 222.323 167.593C223.915 173.982 223.941 181.514 220.406 187.285C216.429 193.747 207.241 195.781 201.232 190.773C197.906 187.959 196.161 183.698 196.558 179.358C196.773 176.814 192.808 176.829 192.593 179.358C192.447 181.088 192.576 182.83 192.976 184.519C176.31 186.253 160.382 192.304 146.765 202.074C141.677 205.745 136.967 209.914 132.703 214.517C133.52 216.282 131.598 217.859 130.183 217.329Z" fill="#1B1D20"/>
<path d="M360.356 318.898C339.263 319.063 318.465 313.936 299.864 303.983C284.612 295.776 271.235 284.48 260.585 270.815L260.37 270.539C258.903 268.648 257.489 266.714 256.129 264.737C249.92 255.722 244.914 245.934 241.239 235.621C240.396 233.234 236.565 234.263 237.405 236.676C241.651 248.634 247.618 259.909 255.117 270.144C252.329 270.33 249.554 270.683 246.807 271.199C244.303 271.667 245.361 275.489 247.858 275.036C251.216 274.415 254.618 274.065 258.031 273.992C261.639 278.554 265.548 282.868 269.731 286.908C283.074 299.723 299.018 309.511 316.48 315.609C316.451 315.777 316.442 315.947 316.453 316.116C317.469 332.347 306.065 346.045 292.217 352.998C276.906 360.672 258.438 362.08 241.642 360.235C233.256 359.288 225.002 357.412 217.031 354.64C229.114 349.286 240.179 341.877 249.733 332.742C251.577 330.973 248.774 328.172 246.93 329.937C230.521 345.669 209.269 355.914 186.867 359.529C175.729 361.348 164.374 361.405 153.218 359.697C141.572 357.875 129.723 353.98 120.665 346.164C111.339 338.106 105.169 325.827 107.205 313.361C111.548 311.608 115.793 309.621 119.921 307.409C135.276 299.117 148.783 287.785 159.622 274.103C164.929 273.756 170.258 274.063 175.49 275.02C177.986 275.489 179.052 271.667 176.544 271.183C171.994 270.328 167.369 269.932 162.739 270.002C163.533 268.919 164.312 267.83 165.071 266.721C171.458 257.412 176.598 247.306 180.36 236.661C181.215 234.251 177.388 233.208 176.525 235.606C169.975 253.968 159.263 270.562 145.23 284.088C133.613 295.251 119.938 304.048 104.966 309.988C104.715 310.026 104.475 310.118 104.264 310.26C100.399 311.772 96.4618 313.093 92.4534 314.224C81.0529 317.427 69.2571 319 57.4159 318.898C54.8659 318.875 54.862 322.842 57.4159 322.865C72.9775 322.978 88.4332 320.297 103.049 314.949C102.067 325.908 106.362 336.598 113.694 344.836C122.03 354.195 133.964 359.613 146.009 362.334C167.767 367.245 190.913 364.878 211.655 356.858C229.083 363.615 248.168 366.313 266.759 364.11C283.812 362.088 301.352 355.979 312.093 341.855C317.496 334.741 320.809 325.916 320.468 316.914C321.728 317.313 322.996 317.697 324.272 318.065C336.014 321.355 348.162 322.971 360.356 322.865C362.91 322.842 362.914 318.875 360.356 318.898Z" fill="#1B1D20"/>
<path d="M266.25 337.438C269.149 323.625 254.788 314.93 244.143 310.138C229.974 303.756 214.467 300.031 199.277 297.126C185.914 294.572 172.395 292.922 158.81 292.188C156.26 292.049 156.268 296.025 158.81 296.151C179.728 297.275 200.467 300.619 220.679 306.128C226.797 307.759 232.815 309.746 238.702 312.079C244.63 314.466 250.67 317.363 255.598 321.491C260.199 325.355 263.65 330.44 262.419 336.364C261.906 338.874 265.725 339.936 266.25 337.438Z" fill="#1B1D20"/>
<path d="M284.046 135.381C283.732 135.151 283.421 134.92 283.103 134.698C274.248 128.44 263.749 123.382 252.931 121.847C248.752 121.253 244.384 121.145 240.223 122.016C240.112 121.675 239.989 121.337 239.84 121.007C235.579 110.217 222.691 105.617 211.954 105.049C201.464 104.576 191.107 107.552 182.465 113.521C178.142 116.491 174.364 120.187 171.299 124.445C168.074 128.954 165.508 134.422 165.604 140.093C165.625 141.627 165.883 143.148 166.371 144.601C158.299 144.099 150.3 146.343 143.428 150.553L142.776 150.963C141.723 151.636 140.701 152.355 139.708 153.12C138.36 154.152 137.072 155.262 135.851 156.443C126.003 165.974 121.716 179.738 122.648 193.217C123.229 201.324 125.469 209.224 129.228 216.428C129.421 216.836 129.762 217.155 130.183 217.318C131.598 217.848 133.519 216.271 132.683 214.506C132.673 214.48 132.662 214.454 132.649 214.429C126.678 202.918 124.646 189.104 128.296 176.526C131.584 165.163 139.786 155.87 150.649 151.201C156.478 148.73 163 147.748 169.259 148.868C170.766 149.137 172.614 147.502 171.498 145.956C168.465 141.758 169.423 136.279 171.498 131.855C173.571 127.56 176.457 123.708 179.996 120.512C186.819 114.26 195.434 110.312 204.622 109.223C213.933 108.161 224.911 109.891 232.009 116.483C233.994 118.302 235.512 120.572 236.435 123.102H236.392C231.714 124.909 225.444 128.969 225.782 134.74C225.939 137.533 228.154 139.769 230.943 139.951C233.451 140.135 236.101 138.823 237.765 136.992C240.484 134.011 241.427 129.859 241.048 125.865C245.511 124.917 250.228 125.209 254.672 126.11C264.382 128.075 273.593 132.68 281.607 138.416C297.908 150.092 309.861 167.578 316.192 186.506C323.984 209.79 324.065 235.015 319.866 259.027C319.34 262.04 318.742 265.036 318.09 268.025C317.546 270.512 321.365 271.575 321.925 269.081C327.677 242.808 328.931 214.893 321.12 188.885C315.283 169.454 304.048 151.489 288.329 138.619C287.307 137.775 286.255 136.951 285.173 136.148C284.782 135.907 284.429 135.661 284.046 135.381ZM236.91 129.97C236.446 132.138 235.415 134.295 233.424 135.427C232.147 136.159 229.739 136.547 229.705 134.425C229.666 132.192 231.879 130.239 233.539 129.076C234.675 128.283 235.894 127.617 237.175 127.089C237.208 128.056 237.123 129.024 236.922 129.97H236.91Z" fill="#2FA761"/>
<path d="M184.099 171.638C181.909 170.318 179.915 173.744 182.101 175.06C188.01 178.629 195.553 177.048 201.412 174.162C203.325 173.27 205.033 171.991 206.428 170.406C208.228 170.544 210.04 170.402 211.797 169.984C218.998 168.273 224.037 161.826 224.528 154.536C224.7 151.988 220.735 151.999 220.563 154.536C220.25 158.964 217.697 162.926 213.795 165.038C212.114 165.905 210.268 166.404 208.38 166.504C208.982 163.722 208.379 160.815 206.72 158.503C204.898 155.998 201.612 154.236 198.586 155.714C195.956 157.003 194.859 160.215 195.457 162.966C196.14 166.105 198.962 168.211 201.784 169.343C200.979 169.909 200.126 170.403 199.234 170.82C194.698 173.007 188.681 174.416 184.099 171.638ZM200.971 164.42C199.637 163.361 198.648 161.531 199.664 159.911C200.722 158.223 202.697 159.662 203.525 160.817C204.623 162.348 204.942 164.304 204.388 166.105C203.15 165.785 201.989 165.219 200.975 164.439L200.971 164.42Z" fill="#2FA761"/>
<path fill-rule="evenodd" clip-rule="evenodd" d="M385.459 184.13C381.245 185.892 376.75 186.323 372.567 185.619C364.154 184.233 357.621 178.275 356.074 170.716C355.886 169.718 355.799 168.697 355.838 167.642C356.27 158.719 363.501 150.326 373.286 147.328C382.679 144.394 392.63 147.166 397.691 153.664C402.471 159.844 401.987 168.65 396.475 175.729C393.666 179.34 389.828 182.272 385.459 184.13Z" fill="#1B1D20"/>
<path fill-rule="evenodd" clip-rule="evenodd" d="M65.9843 89.7429C71.6717 93.9241 75.154 102.154 77.5 108.448C82.2576 121.08 80.0249 132.651 71.0785 141.356C69.8859 142.483 68.5815 143.493 67.1325 144.363C54.7953 151.574 37.8188 149.092 26.0866 138.428C14.7493 128.242 10.6442 112.31 15.3971 99.7612C19.9436 87.8713 32.1637 80.833 46.0193 82.1299C53.0845 82.7872 60.0477 85.4351 65.9843 89.7429Z" fill="#1B1D20"/>
<path d="M28.4173 103.228C28.3417 103.361 28.309 103.515 28.3228 103.674C28.3367 103.833 28.3965 103.99 28.4956 104.129L40.047 124.639C40.0642 124.671 40.0835 124.703 40.1046 124.734L40.1053 124.737C40.1225 124.761 40.1409 124.785 40.1603 124.808C40.2 124.855 40.244 124.9 40.2919 124.94C40.3395 124.98 40.3907 125.016 40.4446 125.047L40.4462 125.048C40.4726 125.063 40.4996 125.077 40.5271 125.09C40.5328 125.092 40.5385 125.094 40.5443 125.097C40.5871 125.115 40.631 125.131 40.6756 125.143C40.6839 125.146 40.6922 125.149 40.7006 125.151L40.7021 125.152C40.7315 125.16 40.7611 125.166 40.7908 125.171L40.7923 125.172C40.8217 125.176 40.851 125.179 40.8804 125.181L40.8819 125.182C40.9115 125.184 40.9409 125.184 40.9701 125.183C40.9836 125.182 40.9971 125.181 41.0104 125.18C41.0268 125.179 41.0432 125.178 41.0594 125.176C41.088 125.173 41.1162 125.168 41.144 125.162L41.1464 125.162C41.202 125.149 41.2555 125.131 41.3061 125.107L41.3085 125.107C41.3128 125.105 41.3171 125.102 41.3213 125.1L41.3237 125.099L53.4621 119.195C53.6462 119.139 53.7977 119.023 53.8924 118.865C53.987 118.708 54.0194 118.518 53.9842 118.327L53.513 104.688C53.513 104.681 53.5129 104.674 53.5127 104.667C53.5118 104.646 53.5099 104.624 53.5072 104.602C53.5064 104.595 53.5055 104.588 53.5046 104.582C53.5034 104.576 53.5022 104.571 53.501 104.566C53.4984 104.545 53.495 104.523 53.4907 104.502L53.4893 104.497C53.4884 104.493 53.4874 104.488 53.4864 104.484C53.4799 104.46 53.4723 104.436 53.4637 104.412C53.454 104.384 53.4428 104.356 53.4303 104.329C53.418 104.303 53.4044 104.277 53.3896 104.251L53.3888 104.249L53.385 104.245C53.3715 104.22 53.3568 104.196 53.341 104.173L53.3395 104.172C53.3259 104.152 53.3117 104.134 53.2967 104.115C53.2922 104.11 53.2876 104.105 53.2829 104.099C53.2779 104.094 53.2727 104.088 53.2675 104.082C53.2527 104.066 53.2373 104.05 53.2214 104.035L53.2191 104.032L53.2153 104.028C53.1942 104.008 53.1723 103.989 53.1497 103.97C53.1314 103.955 53.1125 103.94 53.0932 103.926C53.0911 103.925 53.0891 103.924 53.087 103.923C53.0635 103.906 53.0395 103.891 53.0148 103.876C52.9989 103.867 52.9828 103.859 52.9666 103.85C52.9494 103.841 52.932 103.832 52.9144 103.824L52.9128 103.823C52.91 103.822 52.9071 103.821 52.9042 103.82C52.8798 103.809 52.8551 103.8 52.8301 103.791L52.827 103.789C52.8045 103.781 52.7818 103.774 52.7589 103.768C52.7521 103.766 52.7453 103.765 52.7385 103.763C52.731 103.761 52.7234 103.76 52.7158 103.758C52.6944 103.753 52.673 103.749 52.6515 103.745L52.6491 103.746L52.6436 103.744C52.6153 103.741 52.5869 103.738 52.5587 103.737C52.5553 103.737 52.5519 103.737 52.5484 103.737C52.5458 103.736 52.5432 103.736 52.5406 103.736L52.4902 103.735L29.2466 102.859C29.0762 102.835 28.9077 102.857 28.7609 102.922C28.6141 102.987 28.4949 103.093 28.4173 103.228ZM31.5416 106.095L41.0087 111.91L40.1779 121.431L31.5416 106.095ZM32.3826 104.686L49.7789 105.34L41.8497 110.501L32.3826 104.686ZM42.739 112.973L51.2959 118.229L41.8841 122.808L42.739 112.973ZM43.5801 111.564L51.7726 106.236L52.1369 116.82L43.5801 111.564ZM55.7957 106.54C55.7206 106.664 55.6839 106.809 55.6895 106.96L56.1479 120.246L44.3325 125.994C44.2055 126.056 44.1008 126.149 44.028 126.266C43.9466 126.396 43.9079 126.549 43.9164 126.709C43.9249 126.869 43.9802 127.028 44.0761 127.17C44.1719 127.311 44.3045 127.429 44.4587 127.509C44.613 127.59 44.7827 127.63 44.9489 127.625L51.735 128.086L65.8466 127.043C66.0057 127.057 66.1608 127.03 66.296 126.966C66.4312 126.902 66.5418 126.803 66.6163 126.678C66.6909 126.553 66.7268 126.408 66.7204 126.257C66.714 126.106 66.6656 125.954 66.58 125.817L57.3998 106.758C57.3281 106.608 57.2162 106.475 57.0767 106.374C56.9371 106.272 56.7753 106.207 56.6092 106.184C56.4431 106.162 56.2792 106.183 56.1356 106.246C55.992 106.309 55.8744 106.41 55.7957 106.54ZM51.5447 125.186L57.1066 121.798L62.9717 125.401L51.5447 125.186ZM57.6281 111.153L63.8127 123.991L57.9477 120.389L57.6281 111.153Z" fill="white"/>
<path fill-rule="evenodd" clip-rule="evenodd" d="M28.0743 103.023L28.0747 103.022C28.1856 102.829 28.3559 102.677 28.5656 102.584C28.7686 102.494 29.0005 102.462 29.2359 102.492L41.2047 102.211L52.4558 103.366L52.5252 103.367L52.5409 103.369C52.5584 103.37 52.5759 103.371 52.5934 103.373L52.6057 103.371L52.6651 103.381L52.6783 103.382L52.6844 103.384C52.7087 103.388 52.7329 103.393 52.757 103.399C52.7644 103.4 52.7719 103.402 52.7793 103.404L52.7877 103.405C52.7974 103.408 52.8071 103.41 52.8168 103.413L52.8233 103.414C52.8559 103.423 52.8883 103.433 52.9205 103.444L52.9658 103.46L52.9717 103.464C52.9881 103.47 53.0044 103.477 53.0206 103.484L53.0252 103.485L53.0606 103.5L53.0757 103.509C53.0905 103.516 53.1053 103.524 53.12 103.532C53.1412 103.542 53.1621 103.554 53.1828 103.565L53.1872 103.568C53.2183 103.586 53.2488 103.605 53.2785 103.626L53.2899 103.633L53.3036 103.643C53.33 103.662 53.3557 103.682 53.3808 103.703C53.4118 103.728 53.4419 103.754 53.4708 103.782L53.4827 103.793L53.4938 103.805L53.4977 103.809C53.5135 103.825 53.5291 103.841 53.5442 103.858C53.5514 103.866 53.5585 103.873 53.5655 103.881L53.5664 103.882C53.5731 103.89 53.5796 103.898 53.5861 103.905L53.5911 103.911L53.5923 103.913L53.606 103.921L53.6596 104.001C53.6721 104.02 53.6841 104.039 53.6956 104.058L53.7311 104.097L53.7463 104.145C53.7582 104.168 53.7695 104.19 53.7802 104.213L53.781 104.215C53.7986 104.253 53.8143 104.292 53.8281 104.331C53.8402 104.365 53.8508 104.398 53.86 104.433L53.8619 104.44L53.8635 104.447L53.8661 104.455L53.8699 104.475C53.8746 104.498 53.8786 104.522 53.8818 104.545L53.8851 104.56L53.8871 104.574C53.8884 104.583 53.8897 104.593 53.8908 104.602L53.8909 104.603L53.5079 104.601M53.5052 104.58L53.5017 104.565C53.4991 104.543 53.4957 104.522 53.4914 104.5L53.4899 104.496L53.4871 104.483C53.4806 104.458 53.473 104.434 53.4644 104.41C53.4546 104.382 53.4435 104.355 53.4309 104.328C53.4186 104.301 53.405 104.275 53.3902 104.25L53.3895 104.248L53.3857 104.243C53.3721 104.219 53.3574 104.195 53.3417 104.171L53.3402 104.17C53.3266 104.151 53.3123 104.132 53.2974 104.114L53.2836 104.098L53.2682 104.081C53.2534 104.065 53.238 104.049 53.2221 104.034L53.2198 104.031L53.2159 104.026C53.1949 104.006 53.173 103.987 53.1503 103.969C53.132 103.954 53.1132 103.939 53.0939 103.925L53.0876 103.921C53.0642 103.905 53.0401 103.889 53.0155 103.875C52.9996 103.866 52.9835 103.857 52.9672 103.849C52.9501 103.84 52.9327 103.831 52.9151 103.823L52.9135 103.822L52.9049 103.818C52.8805 103.808 52.8558 103.798 52.8307 103.79L52.8276 103.788C52.8051 103.78 52.7824 103.773 52.7596 103.767L52.7392 103.762C52.7316 103.76 52.724 103.759 52.7165 103.757C52.6951 103.752 52.6737 103.748 52.6521 103.744L52.6498 103.744L52.6443 103.743C52.6159 103.739 52.5876 103.737 52.5593 103.736L52.5491 103.735L52.5413 103.734L52.4908 103.733L29.2473 102.858C29.0768 102.834 28.9084 102.855 28.7616 102.921C28.6147 102.986 28.4956 103.092 28.4179 103.227C28.3424 103.359 28.3097 103.513 28.3235 103.672C28.3373 103.831 28.3972 103.989 28.4963 104.127L40.0477 124.637C40.0649 124.67 40.0841 124.702 40.1052 124.733L40.106 124.735C40.1232 124.76 40.1415 124.784 40.161 124.807C40.2006 124.854 40.2447 124.898 40.2926 124.938C40.3402 124.978 40.3914 125.014 40.4453 125.045L40.4468 125.046C40.4732 125.061 40.5002 125.076 40.5278 125.088L40.545 125.095C40.5878 125.114 40.6317 125.129 40.6762 125.142C40.6846 125.145 40.6929 125.147 40.7013 125.15L40.7028 125.151C40.7322 125.158 40.7618 125.165 40.7914 125.17L40.793 125.17C40.8223 125.175 40.8517 125.178 40.881 125.179L40.8826 125.18C40.9121 125.182 40.9416 125.183 40.9708 125.182C40.9843 125.181 40.9977 125.18 41.0111 125.178C41.0275 125.178 41.0438 125.176 41.0601 125.175C41.0887 125.171 41.1169 125.167 41.1447 125.161L41.1471 125.16C41.2027 125.148 41.2562 125.129 41.3068 125.106L41.3092 125.106L41.322 125.099L41.3243 125.098L53.4627 119.194C53.6469 119.138 53.7984 119.022 53.893 118.864C53.9877 118.707 54.0201 118.517 53.9849 118.326L53.5137 104.687L53.5134 104.666M53.8991 104.724L54.3693 118.334C54.4113 118.598 54.3637 118.857 54.2332 119.074C54.1029 119.291 53.8972 119.453 53.647 119.536L41.5271 125.431L41.4811 125.457L41.4621 125.46C41.4032 125.484 41.3419 125.504 41.2787 125.518L41.2699 125.52L41.2642 125.521C41.2267 125.529 41.1887 125.535 41.1501 125.54L41.1468 125.54C41.1274 125.542 41.1079 125.544 41.0882 125.545C41.0728 125.546 41.0574 125.548 41.0419 125.548L41.0288 125.549C40.987 125.551 40.9449 125.55 40.9027 125.547L40.7967 125.54L40.7878 125.535C40.7849 125.534 40.782 125.534 40.7791 125.533L40.6911 125.52L40.6796 125.513C40.6679 125.511 40.6562 125.508 40.6446 125.505L40.5804 125.488L40.5705 125.482C40.5224 125.467 40.4749 125.45 40.4283 125.43L40.4143 125.424L40.4035 125.42L40.3929 125.415C40.3535 125.396 40.315 125.376 40.2772 125.355L40.2669 125.349C40.1934 125.305 40.1235 125.256 40.0583 125.201C39.9901 125.144 39.9272 125.081 39.8707 125.014C39.8434 124.981 39.8176 124.948 39.7935 124.913L39.7565 124.861L39.7533 124.85C39.7381 124.826 39.7237 124.801 39.7101 124.775L34.7368 115.208L28.1717 104.288C28.0388 104.095 27.9585 103.878 27.9394 103.659C27.9196 103.432 27.9663 103.212 28.0743 103.023M55.4568 106.327C55.5691 106.142 55.7372 105.997 55.9423 105.907C56.1474 105.817 56.3816 105.787 56.6188 105.819C56.8561 105.852 57.0873 105.945 57.2866 106.09C57.4856 106.234 57.6452 106.424 57.7477 106.638M57.4005 106.757L66.5807 125.816C66.6662 125.953 66.7147 126.104 66.7211 126.256C66.7275 126.407 66.6915 126.552 66.617 126.677C66.5424 126.801 66.4319 126.901 66.2967 126.965C66.1615 127.029 66.0064 127.055 65.8473 127.041L44.9495 127.624C44.7834 127.629 44.6136 127.588 44.4594 127.508C44.3051 127.427 44.1726 127.31 44.0767 127.168C43.9809 127.027 43.9256 126.867 43.9171 126.707C43.9086 126.548 43.9473 126.394 44.0287 126.264C44.1014 126.148 44.2061 126.055 44.3331 125.993L56.1485 120.245L55.6901 106.959C55.6846 106.808 55.7212 106.663 55.7964 106.539C55.875 106.409 55.9927 106.307 56.1362 106.244C56.2798 106.182 56.4438 106.16 56.6099 106.183C56.776 106.206 56.9378 106.271 57.0774 106.372C57.2169 106.474 57.3288 106.607 57.4005 106.757ZM55.3049 106.928L55.7561 120.004L44.1267 125.661C43.9453 125.75 43.7953 125.883 43.6913 126.05C43.5751 126.235 43.52 126.454 43.5322 126.682C43.5443 126.91 43.6233 127.138 43.7602 127.34C43.8971 127.542 44.0864 127.711 44.3067 127.826C44.5271 127.941 44.7696 127.998 45.0069 127.991L65.8834 127.409C66.1018 127.424 66.314 127.386 66.5 127.298C66.6932 127.206 66.851 127.064 66.9575 126.886C67.064 126.708 67.1153 126.501 67.1062 126.285C67.0974 126.077 67.0329 125.868 66.9188 125.678L57.7482 106.639M55.4568 106.327C55.3496 106.504 55.2971 106.712 55.3049 106.928L55.4568 106.327ZM31.5423 106.094L40.1786 121.43L41.0094 111.909L31.5423 106.094ZM32.5322 107.115L40.6045 112.073L39.8961 120.191L32.5322 107.115ZM32.3833 104.685L41.8504 110.5L49.7796 105.339L32.3833 104.685ZM33.7336 105.101L41.8059 110.06L48.5669 105.659L33.7336 105.101ZM42.7397 112.972L41.8848 122.807L51.2966 118.228L42.7397 112.972ZM43.0764 113.591L42.3318 122.158L50.5293 118.169L43.0764 113.591ZM43.5807 111.562L52.1376 116.818L51.7733 106.234L43.5807 111.562ZM44.2778 111.578L46.6208 109.585L51.4133 106.937L52.123 116.395L44.2778 111.578ZM57.1073 121.797L62.9724 125.4L48.8933 125.792L57.1073 121.797ZM50.64 125.374L57.1249 122.221L61.7553 125.065L50.64 125.374ZM57.6287 111.151L57.9483 120.388L63.8134 123.99L57.6287 111.151ZM58.0739 112.915L62.9567 123.051L58.1175 120.491L58.0739 112.915Z" fill="white"/>
<path d="M6.18626 86.0328L10.1791 87.6808C11.1482 88.1 12.3123 87.3155 12.5749 86.3838C12.8765 85.2774 12.2375 84.3635 11.278 83.9832L7.2852 82.3351C6.31609 81.9159 5.15197 82.7004 4.88935 83.6321C4.53933 84.7093 5.21715 85.6135 6.18626 86.0328Z" fill="#1B1D20"/>
<path d="M13.5397 72.1991C12.7828 72.9649 12.7913 74.1593 13.5178 74.9276L16.1524 77.5734C16.8884 78.3806 18.1002 78.4507 18.8668 77.7238C19.6722 76.9872 19.7412 75.7736 19.0148 75.0052C18.9663 74.976 18.9567 74.9372 18.8986 74.8691C18.0171 73.9742 17.1454 73.1182 16.264 72.2233C15.5472 71.4938 14.3063 71.4722 13.5397 72.1991Z" fill="#1B1D20"/>
<path d="M25.9519 67.793C26.1445 69.2305 26.3759 70.6583 26.5685 72.0957C26.7032 73.1349 27.963 73.7295 28.894 73.498C29.98 73.2281 30.4657 72.1996 30.2922 71.1701L29.6757 66.8674C29.5409 65.8282 28.2811 65.2336 27.3502 65.465C26.2641 65.735 25.8172 66.7538 25.9519 67.793Z" fill="#1B1D20"/>
<path d="M360.841 46.1117C364.822 46.8755 364.963 47.2363 368.999 48C372.598 48.7093 374.173 43.1096 370.519 42.4003C366.538 41.6366 366.397 41.2758 362.361 40.5121C358.762 39.8577 357.187 45.4025 360.841 46.1117Z" fill="#1B1D20"/>
<path d="M356.888 22.9008C355.635 23.8352 355.037 25.3726 355.856 26.8534C356.567 28.1149 358.53 28.8261 359.783 27.8916C364.481 24.3085 369.653 21.4025 375.149 19.2575C378.582 17.9364 377.049 12.3403 373.616 13.6614C367.643 15.9508 362.014 19.06 356.888 22.9008Z" fill="#1B1D20"/>
<path fill-rule="evenodd" clip-rule="evenodd" d="M346.686 52.3553C346.035 59.3859 342.952 65.8649 338.26 71.1173C328.873 81.7013 313.532 86.4893 299.758 83.2983C297.954 82.8559 296.197 82.257 294.49 81.462C280.137 74.5939 272.397 58.756 275.712 43.2034C278.801 28.2351 291.773 16.5117 306.762 14.127C320.99 11.9046 335.105 18.7615 342.128 31.3125C345.713 37.7105 347.309 45.0458 346.686 52.3553Z" fill="#1B1D20"/>
<path d="M315.83 27.3687C315.661 27.3324 315.485 27.3441 315.322 27.4022C315.158 27.4603 315.015 27.5627 314.906 27.6979L297.634 44.6809C297.606 44.7069 297.579 44.7345 297.555 44.7637L297.553 44.7651C297.533 44.7887 297.515 44.8132 297.498 44.8386C297.463 44.8904 297.434 44.9456 297.41 45.0034C297.386 45.0608 297.367 45.1206 297.355 45.1817L297.355 45.1835C297.349 45.2134 297.344 45.2436 297.341 45.2739C297.341 45.2801 297.341 45.2863 297.341 45.2925C297.338 45.3394 297.338 45.3864 297.342 45.4332C297.342 45.442 297.343 45.4508 297.343 45.4597L297.343 45.4615C297.346 45.4921 297.351 45.5226 297.358 45.5527L297.357 45.5545C297.364 45.5843 297.372 45.6136 297.382 45.6425L297.381 45.6443C297.391 45.6735 297.402 45.7023 297.414 45.7304C297.42 45.7433 297.426 45.756 297.433 45.7686C297.44 45.7843 297.448 45.7998 297.456 45.8151C297.47 45.8419 297.486 45.8681 297.503 45.8934L297.505 45.8956C297.54 45.946 297.58 45.9928 297.624 46.0354L297.625 46.0376C297.63 46.0411 297.634 46.0446 297.638 46.048L297.639 46.0502L308.591 56.1777C308.722 56.3408 308.904 56.4553 309.107 56.503C309.31 56.5507 309.524 56.5288 309.713 56.4408L323.987 52.1492C323.994 52.1473 324.002 52.1452 324.009 52.1431C324.032 52.136 324.054 52.1281 324.076 52.1193C324.083 52.1166 324.09 52.1139 324.097 52.111C324.102 52.1084 324.107 52.1059 324.112 52.1032C324.134 52.0946 324.155 52.0853 324.176 52.0751L324.181 52.0723C324.185 52.0702 324.189 52.0681 324.193 52.0659C324.217 52.0528 324.239 52.0387 324.261 52.0236C324.287 52.0063 324.312 51.9877 324.336 51.9678C324.359 51.9485 324.381 51.928 324.402 51.9065L324.405 51.9051L324.408 51.9002C324.428 51.8802 324.448 51.8591 324.467 51.8372L324.467 51.8355C324.483 51.8169 324.497 51.7978 324.511 51.7781C324.515 51.7722 324.518 51.7662 324.522 51.7602C324.526 51.7537 324.53 51.7471 324.534 51.7405C324.546 51.7215 324.556 51.7022 324.566 51.6824L324.569 51.6793L324.572 51.6744C324.585 51.6483 324.597 51.6217 324.607 51.5946C324.617 51.5725 324.625 51.5501 324.632 51.5273C324.633 51.525 324.633 51.5226 324.634 51.5202C324.642 51.4929 324.649 51.4651 324.655 51.4371C324.658 51.4192 324.661 51.4011 324.664 51.383C324.667 51.3637 324.67 51.3444 324.672 51.3249L324.672 51.3232C324.672 51.3201 324.672 51.317 324.672 51.3139C324.674 51.2872 324.674 51.2605 324.674 51.2338L324.675 51.2302C324.674 51.2062 324.673 51.1822 324.671 51.1582C324.67 51.1511 324.669 51.1441 324.668 51.137C324.667 51.1292 324.666 51.1214 324.664 51.1137C324.661 51.0915 324.658 51.0694 324.653 51.0475L324.652 51.0453L324.651 51.0396C324.644 51.011 324.636 50.9828 324.626 50.9551C324.625 50.9517 324.624 50.9484 324.623 50.945C324.622 50.9423 324.621 50.9397 324.621 50.9371L324.602 50.8879L316.542 28.0703C316.502 27.8979 316.414 27.7404 316.288 27.6162C316.162 27.492 316.003 27.4061 315.83 27.3687ZM313.999 31.2087L311.497 42.0367L301.084 43.9064L313.999 31.2087ZM315.819 31.6292L321.852 48.7064L313.316 42.4572L315.819 31.6292ZM311.039 44.0158L308.777 53.8028L300.284 45.9504L311.039 44.0158ZM312.859 44.4363L321.674 50.8941L310.596 54.2232L312.859 44.4363ZM322.907 54.8865C322.746 54.8484 322.579 54.8535 322.421 54.9013L308.515 59.0815L297.855 49.2234C297.74 49.1175 297.6 49.0422 297.449 49.0042C297.28 48.9616 297.102 48.9672 296.936 49.0204C296.77 49.0736 296.622 49.1721 296.509 49.305C296.396 49.4378 296.323 49.5996 296.297 49.772C296.272 49.9444 296.295 50.1206 296.364 50.2806L298.5 57L305.062 70.4104C305.109 70.5688 305.197 70.7119 305.317 70.8252C305.437 70.9385 305.586 71.0179 305.746 71.0553C305.907 71.0927 306.075 71.0867 306.233 71.038C306.391 70.9893 306.533 70.8996 306.645 70.778L323.296 56.5054C323.428 56.3936 323.525 56.2476 323.579 56.0836C323.632 55.9196 323.639 55.7441 323.599 55.5764C323.558 55.4088 323.472 55.2556 323.35 55.1338C323.228 55.012 323.075 54.9264 322.907 54.8865ZM301.5 56L307.241 60.4488L305.691 67.1571L301.5 56ZM318.726 57.9625L307.51 67.5775L309.06 60.8693L318.726 57.9625Z" fill="white"/>
<path fill-rule="evenodd" clip-rule="evenodd" d="M315.915 26.9775L315.916 26.9777C316.163 27.0312 316.39 27.1539 316.57 27.3313C316.744 27.5031 316.868 27.7193 316.927 27.9563L321.854 39.5L324.98 50.7505L325.005 50.8183L325.009 50.8341C325.015 50.8513 325.02 50.8687 325.026 50.8861L325.033 50.8974L325.045 50.9579L325.048 50.9712L325.049 50.9776C325.054 51.0024 325.058 51.0273 325.061 51.0523C325.062 51.0599 325.064 51.0676 325.065 51.0753L325.066 51.0839C325.068 51.094 325.069 51.1041 325.07 51.1142L325.071 51.1209C325.074 51.1551 325.076 51.1895 325.076 51.2238L325.077 51.2723L325.075 51.279C325.075 51.2967 325.074 51.3144 325.073 51.3321L325.073 51.337L325.072 51.3754L325.068 51.3926C325.066 51.4091 325.064 51.4256 325.061 51.442C325.058 51.4657 325.054 51.4892 325.049 51.5126L325.048 51.5176C325.041 51.5529 325.032 51.5879 325.022 51.6225L325.019 51.6355L325.014 51.6517C325.004 51.6827 324.993 51.7133 324.98 51.7435C324.966 51.7807 324.949 51.8172 324.932 51.853L324.924 51.8678L324.916 51.882L324.912 51.8869C324.902 51.9068 324.891 51.9264 324.879 51.9457C324.874 51.9549 324.868 51.964 324.862 51.9731L324.862 51.9741C324.856 51.9828 324.851 51.9913 324.845 51.9997L324.841 52.0062L324.84 52.0079L324.836 52.0235L324.772 52.0981C324.757 52.1154 324.742 52.1324 324.726 52.149L324.698 52.1945L324.652 52.2228C324.633 52.2407 324.614 52.258 324.594 52.2748L324.592 52.276C324.559 52.3038 324.524 52.33 324.488 52.3544C324.457 52.3756 324.425 52.3954 324.392 52.4139L324.385 52.4179L324.379 52.4213L324.371 52.4262L324.351 52.4354C324.328 52.4466 324.305 52.4571 324.281 52.4669L324.267 52.4742L324.253 52.4801C324.243 52.484 324.234 52.4878 324.224 52.4915L324.223 52.492L324.078 52.1193M324.098 52.111L324.113 52.1032C324.135 52.0946 324.157 52.0852 324.178 52.0751L324.182 52.0723L324.195 52.0659C324.218 52.0528 324.241 52.0386 324.263 52.0236C324.289 52.0062 324.313 51.9876 324.337 51.9678C324.361 51.9485 324.383 51.928 324.404 51.9065L324.406 51.9051L324.409 51.9002C324.43 51.8801 324.45 51.8591 324.469 51.8372L324.469 51.8354C324.484 51.8169 324.499 51.7977 324.512 51.7781L324.524 51.7602L324.536 51.7405C324.547 51.7215 324.558 51.7021 324.568 51.6824L324.571 51.6793L324.574 51.6743C324.587 51.6483 324.598 51.6217 324.609 51.5945C324.618 51.5725 324.626 51.55 324.634 51.5273L324.635 51.5202C324.644 51.4928 324.651 51.4651 324.657 51.4371C324.66 51.4192 324.663 51.4011 324.665 51.383C324.668 51.3637 324.671 51.3444 324.673 51.3249L324.674 51.3231L324.674 51.3138C324.675 51.2872 324.676 51.2605 324.675 51.2338L324.676 51.2302C324.676 51.2062 324.675 51.1821 324.672 51.1582L324.67 51.137C324.669 51.1292 324.667 51.1214 324.666 51.1136C324.663 51.0915 324.659 51.0694 324.655 51.0475L324.654 51.0453L324.653 51.0395C324.646 51.011 324.637 50.9828 324.628 50.9551L324.624 50.945L324.622 50.937L324.604 50.8878L316.544 28.0703C316.504 27.8979 316.415 27.7404 316.289 27.6162C316.163 27.492 316.005 27.4061 315.832 27.3686C315.662 27.3324 315.486 27.344 315.323 27.4022C315.16 27.4603 315.016 27.5627 314.908 27.6978L297.635 44.6809C297.607 44.7068 297.581 44.7345 297.556 44.7637L297.554 44.765C297.535 44.7886 297.517 44.8132 297.5 44.8385C297.465 44.8904 297.435 44.9456 297.411 45.0033C297.387 45.0608 297.369 45.1206 297.357 45.1817L297.356 45.1834C297.351 45.2134 297.346 45.2436 297.343 45.2739L297.343 45.2925C297.339 45.3393 297.34 45.3864 297.344 45.4331C297.344 45.442 297.344 45.4508 297.345 45.4597L297.345 45.4614C297.348 45.4921 297.353 45.5225 297.359 45.5527L297.359 45.5545C297.365 45.5842 297.374 45.6136 297.383 45.6425L297.383 45.6443C297.392 45.6735 297.403 45.7023 297.415 45.7304C297.421 45.7433 297.428 45.756 297.435 45.7686C297.442 45.7843 297.449 45.7997 297.458 45.815C297.472 45.8419 297.488 45.868 297.505 45.8934L297.506 45.8955C297.541 45.946 297.581 45.9928 297.626 46.0354L297.627 46.0376L297.639 46.048L297.641 46.0502L308.593 56.1777C308.724 56.3408 308.905 56.4553 309.109 56.503C309.312 56.5507 309.525 56.5288 309.715 56.4408L323.989 52.1492L324.011 52.1431M324.098 52.5339L309.855 56.8163C309.592 56.9313 309.298 56.9582 309.017 56.8924C308.737 56.8268 308.486 56.6725 308.301 56.4529L297.366 46.3407L297.321 46.3032L297.31 46.2857C297.262 46.2353 297.218 46.1812 297.178 46.1239L297.172 46.116L297.169 46.1108C297.146 46.0765 297.125 46.0413 297.106 46.0051L297.104 46.002C297.094 45.9837 297.085 45.9652 297.076 45.9464C297.069 45.9319 297.061 45.9173 297.054 45.9025L297.048 45.89C297.031 45.8498 297.016 45.8087 297.002 45.7669L296.968 45.662L296.971 45.6519C296.97 45.6489 296.969 45.646 296.969 45.6431L296.948 45.5539L296.951 45.5408C296.95 45.5287 296.948 45.5165 296.947 45.5043L296.94 45.4374L296.942 45.4261C296.94 45.3752 296.94 45.3241 296.943 45.2732L296.943 45.2581L296.944 45.2463L296.945 45.2347C296.949 45.1913 296.956 45.1482 296.964 45.1054L296.966 45.0937C296.984 45.0102 297.009 44.9285 297.042 44.8498C297.076 44.7674 297.118 44.6887 297.168 44.6148C297.192 44.5792 297.218 44.5447 297.245 44.5116L297.286 44.4609L297.296 44.4549C297.316 44.4332 297.337 44.4122 297.359 44.3919L305.577 36.8727L314.612 27.4277C314.765 27.2446 314.964 27.1055 315.189 27.0254C315.422 26.9423 315.673 26.9257 315.915 26.9775M323.001 54.4973C323.241 54.5543 323.46 54.6766 323.634 54.8506C323.809 55.0245 323.932 55.2434 323.989 55.4829C324.047 55.7224 324.037 55.9731 323.961 56.2073C323.885 56.4412 323.745 56.6495 323.558 56.8091M323.298 56.5054L306.646 70.778C306.535 70.8995 306.392 70.9892 306.235 71.038C306.077 71.0867 305.909 71.0926 305.748 71.0553C305.587 71.0179 305.439 70.9385 305.319 70.8252C305.199 70.7119 305.111 70.5688 305.064 70.4104L296.366 50.2806C296.296 50.1206 296.273 49.9444 296.299 49.772C296.325 49.5996 296.398 49.4378 296.511 49.3049C296.624 49.1721 296.772 49.0735 296.938 49.0204C297.104 48.9672 297.281 48.9616 297.45 49.0042C297.602 49.0421 297.741 49.1175 297.856 49.2234L308.517 59.0815L322.422 54.9013C322.58 54.8535 322.748 54.8483 322.909 54.8864C323.076 54.9264 323.23 55.012 323.352 55.1337C323.474 55.2555 323.56 55.4087 323.6 55.5764C323.641 55.7441 323.634 55.9196 323.58 56.0836C323.527 56.2476 323.429 56.3936 323.298 56.5054ZM322.306 54.5185L308.621 58.6326L298.128 48.9297C297.964 48.7785 297.764 48.6704 297.547 48.6162C297.306 48.5555 297.053 48.5635 296.816 48.6394C296.579 48.7154 296.367 48.8562 296.206 49.0459C296.045 49.2357 295.94 49.4668 295.903 49.713C295.867 49.9593 295.9 50.211 295.998 50.4395L304.688 70.5488C304.757 70.7651 304.879 70.9604 305.044 71.1163C305.216 71.2781 305.428 71.3915 305.658 71.4449C305.887 71.4983 306.127 71.4897 306.353 71.4202C306.57 71.3531 306.766 71.2317 306.923 71.0676L323.557 56.8099M323.001 54.4973C322.772 54.4429 322.532 54.4504 322.306 54.5185L323.001 54.4973ZM314.001 31.2087L301.086 43.9063L311.498 42.0367L314.001 31.2087ZM313.302 32.4569L311.168 41.6896L302.29 43.2838L313.302 32.4569ZM315.82 31.6291L313.318 42.4572L321.854 48.7064L315.82 31.6291ZM315.901 33.0575L313.767 42.2902L321.045 47.6187L315.901 33.0575ZM311.041 44.0158L300.286 45.9503L308.779 53.8028L311.041 44.0158ZM310.515 44.5169L301.147 46.2018L308.544 53.0412L310.515 44.5169ZM312.86 44.4362L310.598 54.2232L321.675 50.8941L312.86 44.4362ZM313.113 45.1175L316.131 46.8326L320.791 50.7421L311.041 54.0901L313.113 45.1175ZM307.243 60.4488L305.692 67.1571L299.833 53.5953L307.243 60.4488ZM300.951 55.174L306.801 60.5849L305.577 65.881L300.951 55.174ZM318.728 57.9625L309.062 60.8693L307.511 67.5775L318.728 57.9625ZM317.031 58.8906L308.175 66.4816L309.017 61.0627L317.031 58.8906Z" fill="white"/>
<path d="M343.296 7.60514C340.572 10.1328 344.666 14.1893 347.389 11.7165L353.039 5.5566C355.763 3.02893 351.669 -1.02755 349 1.50006L343.296 7.60514Z" fill="#1B1D20"/>
</svg>
