<svg width="36" height="36" viewBox="0 0 36 36" fill="none" xmlns="http://www.w3.org/2000/svg">
<path d="M17.9995 0.666687C10.8323 0.666687 4.66121 5.02717 2.02813 11.25C1.9562 11.4119 1.91724 11.5864 1.91352 11.7635C1.9098 11.9406 1.9414 12.1167 2.00647 12.2814C2.07154 12.4461 2.16877 12.5963 2.2925 12.723C2.41622 12.8497 2.56396 12.9506 2.72708 13.0196C2.8902 13.0886 3.06544 13.1244 3.24256 13.125C3.41968 13.1255 3.59513 13.0908 3.75868 13.0228C3.92222 12.9548 4.07058 12.8549 4.19509 12.7289C4.3196 12.6029 4.41777 12.4534 4.48386 12.2891C6.70944 7.02927 11.9133 3.33335 17.9995 3.33335C21.5902 3.33335 24.8638 4.61626 27.4135 6.75262C27.5478 6.86519 27.7028 6.95021 27.8699 7.00283C28.037 7.05545 28.2128 7.07464 28.3873 7.05931C28.5618 7.04397 28.7316 6.99441 28.887 6.91345C29.0423 6.83249 29.1802 6.72172 29.2927 6.58747C29.4052 6.45322 29.4902 6.29812 29.5428 6.13102C29.5954 5.96392 29.6145 5.78811 29.5991 5.61361C29.5838 5.43911 29.5342 5.26935 29.4532 5.11402C29.3722 4.9587 29.2614 4.82085 29.1271 4.70835C26.1168 2.18605 22.2274 0.666687 17.9995 0.666687ZM17.9995 6.00002C16.6007 6.00002 15.2519 6.23929 13.9995 6.68231C13.8343 6.74077 13.6822 6.8312 13.5519 6.94843C13.4217 7.06567 13.3158 7.20741 13.2403 7.36557C13.1649 7.52373 13.1213 7.69521 13.1121 7.87022C13.1029 8.04522 13.1283 8.22032 13.1868 8.38552C13.2452 8.55071 13.3357 8.70277 13.453 8.83301C13.5702 8.96324 13.712 9.06911 13.8702 9.14455C14.0283 9.21999 14.1998 9.26353 14.3748 9.2727C14.5498 9.28186 14.7249 9.25645 14.8901 9.19794C15.8616 8.85429 16.9049 8.66669 17.9995 8.66669C23.1695 8.66669 27.3328 12.83 27.3328 18V31.3334C27.3303 31.51 27.363 31.6855 27.4288 31.8494C27.4947 32.0134 27.5925 32.1626 27.7166 32.2884C27.8407 32.4143 27.9885 32.5142 28.1515 32.5824C28.3145 32.6506 28.4894 32.6857 28.6661 32.6857C28.8428 32.6857 29.0178 32.6506 29.1808 32.5824C29.3438 32.5142 29.4916 32.4143 29.6157 32.2884C29.7398 32.1626 29.8376 32.0134 29.9035 31.8494C29.9693 31.6855 30.002 31.51 29.9995 31.3334V18C29.9995 11.3887 24.6108 6.00002 17.9995 6.00002ZM32.0047 8.96617C31.7736 8.97011 31.5475 9.03405 31.3486 9.15172C31.1496 9.26939 30.9847 9.43674 30.8699 9.63737C30.7552 9.83799 30.6945 10.065 30.694 10.2961C30.6934 10.5272 30.7529 10.7546 30.8667 10.9557C32.0131 13.047 32.6661 15.4419 32.6661 18V27.3334C32.6636 27.51 32.6963 27.6855 32.7622 27.8494C32.8281 28.0134 32.9259 28.1626 33.0499 28.2884C33.174 28.4143 33.3218 28.5142 33.4848 28.5824C33.6478 28.6506 33.8228 28.6857 33.9995 28.6857C34.1762 28.6857 34.3511 28.6506 34.5141 28.5824C34.6771 28.5142 34.825 28.4143 34.949 28.2884C35.0731 28.1626 35.1709 28.0134 35.2368 27.8494C35.3027 27.6855 35.3353 27.51 35.3328 27.3334V18C35.3328 14.9875 34.5601 12.1459 33.2052 9.6745C33.0899 9.45718 32.9167 9.27599 32.7049 9.15098C32.493 9.02597 32.2507 8.962 32.0047 8.96617ZM9.53073 10.0938C9.33704 10.104 9.14792 10.1564 8.97656 10.2472C8.8052 10.3381 8.65572 10.4652 8.53854 10.6198C6.94937 12.6543 5.99948 15.2238 5.99948 18V31.3334C5.99698 31.51 6.02962 31.6855 6.09551 31.8494C6.1614 32.0134 6.25921 32.1626 6.38327 32.2884C6.50733 32.4143 6.65516 32.5142 6.81817 32.5824C6.98118 32.6506 7.15612 32.6857 7.33282 32.6857C7.50952 32.6857 7.68445 32.6506 7.84746 32.5824C8.01047 32.5142 8.1583 32.4143 8.28236 32.2884C8.40642 32.1626 8.50424 32.0134 8.57012 31.8494C8.63601 31.6855 8.66865 31.51 8.66615 31.3334V18C8.66615 15.8295 9.40262 13.8447 10.6401 12.2604C10.8012 12.0598 10.9009 11.8168 10.927 11.5608C10.9532 11.3048 10.9047 11.0467 10.7874 10.8177C10.6701 10.5886 10.4891 10.3984 10.2661 10.27C10.0431 10.1415 9.78771 10.0803 9.53073 10.0938ZM17.9995 11.3334C14.3335 11.3334 11.3328 14.334 11.3328 18V34C11.3303 34.1767 11.363 34.3521 11.4288 34.5161C11.4947 34.68 11.5925 34.8293 11.7166 34.9551C11.8407 35.0809 11.9885 35.1808 12.1515 35.249C12.3145 35.3172 12.4894 35.3523 12.6661 35.3523C12.8428 35.3523 13.0178 35.3172 13.1808 35.249C13.3438 35.1808 13.4916 35.0809 13.6157 34.9551C13.7398 34.8293 13.8376 34.68 13.9035 34.5161C13.9693 34.3521 14.002 34.1767 13.9995 34V18C13.9995 15.7754 15.7748 14 17.9995 14C20.2241 14 21.9995 15.7754 21.9995 18C21.9995 19.597 21.9316 21.2639 21.8276 22.8854C21.8149 23.0611 21.8372 23.2374 21.893 23.4044C21.9489 23.5714 22.0372 23.7257 22.153 23.8583C22.2688 23.991 22.4097 24.0994 22.5676 24.1773C22.7255 24.2552 22.8973 24.301 23.073 24.3122C23.2487 24.3234 23.4249 24.2997 23.5914 24.2424C23.7579 24.1851 23.9114 24.0954 24.043 23.9785C24.1747 23.8616 24.2819 23.7198 24.3584 23.5612C24.435 23.4027 24.4794 23.2305 24.4891 23.0547C24.5957 21.3909 24.6661 19.6724 24.6661 18C24.6661 14.334 21.6655 11.3334 17.9995 11.3334ZM1.97344 15.5677C1.64347 15.5834 1.33108 15.721 1.09677 15.9539C0.862467 16.1867 0.722935 16.4983 0.705211 16.8281C0.67919 17.2156 0.666149 17.6067 0.666149 18V27.3334C0.66365 27.51 0.696292 27.6855 0.762177 27.8494C0.828062 28.0134 0.925876 28.1626 1.04994 28.2884C1.17399 28.4143 1.32182 28.5142 1.48483 28.5824C1.64784 28.6506 1.82278 28.6857 1.99948 28.6857C2.17618 28.6857 2.35112 28.6506 2.51413 28.5824C2.67714 28.5142 2.82497 28.4143 2.94903 28.2884C3.07309 28.1626 3.1709 28.0134 3.23679 27.8494C3.30267 27.6855 3.33531 27.51 3.33282 27.3334V18C3.33282 17.6653 3.34469 17.3351 3.36667 17.0078C3.38205 16.8188 3.35695 16.6287 3.29302 16.4502C3.2291 16.2716 3.12783 16.1088 2.99597 15.9725C2.86411 15.8362 2.7047 15.7296 2.52837 15.6598C2.35205 15.59 2.16286 15.5586 1.97344 15.5677ZM17.9786 16.6485C17.6255 16.654 17.2889 16.7994 17.0429 17.0528C16.7968 17.3062 16.6613 17.6468 16.6661 18V27.1172C16.6636 27.2939 16.6963 27.4693 16.7622 27.6333C16.8281 27.7972 16.9259 27.9465 17.0499 28.0723C17.174 28.1981 17.3218 28.298 17.4848 28.3662C17.6478 28.4344 17.8228 28.4695 17.9995 28.4695C18.1762 28.4695 18.3511 28.4344 18.5141 28.3662C18.6771 28.298 18.825 28.1981 18.949 28.0723C19.0731 27.9465 19.1709 27.7972 19.2368 27.6333C19.3027 27.4693 19.3353 27.2939 19.3328 27.1172V18C19.3353 17.8216 19.3019 17.6446 19.2347 17.4793C19.1674 17.3141 19.0677 17.164 18.9415 17.038C18.8152 16.9119 18.6649 16.8125 18.4995 16.7456C18.3342 16.6787 18.157 16.6457 17.9786 16.6485ZM23.312 27.6459C22.9588 27.6514 22.6223 27.7968 22.3762 28.0502C22.1301 28.3036 21.9946 28.6442 21.9995 28.9974V34C21.997 34.1767 22.0296 34.3521 22.0955 34.5161C22.1614 34.68 22.2592 34.8293 22.3833 34.9551C22.5073 35.0809 22.6552 35.1808 22.8182 35.249C22.9812 35.3172 23.1561 35.3523 23.3328 35.3523C23.5095 35.3523 23.6845 35.3172 23.8475 35.249C24.0105 35.1808 24.1583 35.0809 24.2824 34.9551C24.4064 34.8293 24.5042 34.68 24.5701 34.5161C24.636 34.3521 24.6686 34.1767 24.6661 34V28.9974C24.6686 28.819 24.6352 28.642 24.568 28.4767C24.5008 28.3115 24.4011 28.1614 24.2748 28.0353C24.1485 27.9093 23.9983 27.8099 23.8329 27.743C23.6675 27.6761 23.4904 27.6431 23.312 27.6459ZM18.0359 31.1693C17.8606 31.1683 17.6868 31.2018 17.5245 31.2681C17.3622 31.3343 17.2145 31.4319 17.09 31.5552C16.9654 31.6786 16.8664 31.8253 16.7986 31.987C16.7308 32.1487 16.6955 32.3221 16.6948 32.4974L16.6661 33.974C16.6627 34.1491 16.6938 34.3231 16.7577 34.4862C16.8215 34.6493 16.9169 34.7982 17.0383 34.9244C17.1597 35.0506 17.3047 35.1517 17.4652 35.2219C17.6256 35.2921 17.7983 35.3299 17.9734 35.3334C18.1485 35.3368 18.3226 35.3057 18.4857 35.2418C18.6487 35.178 18.7976 35.0826 18.9239 34.9612C19.0501 34.8399 19.1512 34.6948 19.2214 34.5343C19.2915 34.3739 19.3294 34.2012 19.3328 34.0261L19.3615 32.5495C19.3677 32.3712 19.3381 32.1934 19.2744 32.0267C19.2107 31.86 19.1142 31.7078 18.9906 31.5791C18.867 31.4504 18.7188 31.3478 18.5548 31.2774C18.3908 31.207 18.2144 31.1702 18.0359 31.1693Z" fill="url(#paint0_linear)"/>
<defs>
<linearGradient id="paint0_linear" x1="17.9995" y1="0.666687" x2="17.9995" y2="35.3523" gradientUnits="userSpaceOnUse">
<stop stop-color="#676C73"/>
<stop offset="1" stop-color="#1B1D20"/>
</linearGradient>
</defs>
</svg>
