<svg width="24" height="34" viewBox="0 0 24 34" fill="none" xmlns="http://www.w3.org/2000/svg">
<path d="M12 0.666626C7.59783 0.666626 4 4.26446 4 8.66663V13.0729C1.55032 15.2698 0 18.45 0 22C0 28.628 5.372 34 12 34C18.628 34 24 28.628 24 22C24 18.45 22.4497 15.2698 20 13.0729V8.66663C20 4.43237 16.6453 1.02306 12.474 0.76298C12.3232 0.70224 12.1625 0.669585 12 0.666626ZM12 3.33329C14.9605 3.33329 17.3333 5.70613 17.3333 8.66663V11.2604C15.7254 10.4604 13.918 9.99996 12 9.99996C10.082 9.99996 8.27456 10.4604 6.66667 11.2604V8.66663C6.66667 5.70613 9.0395 3.33329 12 3.33329ZM12 19.3333C13.4733 19.3333 14.6667 20.5266 14.6667 22C14.6667 22.984 14.1267 23.8342 13.3333 24.2968V26C13.3333 26.736 12.736 27.3333 12 27.3333C11.264 27.3333 10.6667 26.736 10.6667 26V24.2968C9.87333 23.8355 9.33333 22.9853 9.33333 22C9.33333 20.5266 10.5267 19.3333 12 19.3333Z" fill="url(#paint0_linear)"/>
<defs>
<linearGradient id="paint0_linear" x1="12" y1="0.666626" x2="12" y2="34" gradientUnits="userSpaceOnUse">
<stop stop-color="#676C73"/>
<stop offset="1" stop-color="#1B1D20"/>
</linearGradient>
</defs>
</svg>
