<svg width="32" height="32" viewBox="0 0 32 32" fill="none" xmlns="http://www.w3.org/2000/svg">
<path d="M16 1.12728e-05C7.17938 1.12728e-05 0 7.17939 0 16C0 24.8206 7.17938 32 16 32C24.8206 32 32 24.8206 32 16C32 10.4804 29.1972 5.60022 24.9323 2.72397L26.4609 0.763032L20 0.528657L21.8646 6.66668L23.2812 4.84637C26.5699 6.99625 28.8524 10.5456 29.2604 14.6693C28.92 14.6879 28.5997 14.8362 28.3653 15.0837C28.1309 15.3312 28.0002 15.6591 28 16C28.0003 16.3422 28.1321 16.6712 28.3681 16.9189C28.6042 17.1666 28.9265 17.314 29.2682 17.3307C28.6457 23.6433 23.6433 28.6457 17.3307 29.2682C17.314 28.9265 17.1666 28.6042 16.9189 28.3681C16.6712 28.1321 16.3422 28.0003 16 28C15.6578 28.0003 15.3288 28.1321 15.0811 28.3681C14.8334 28.6042 14.686 28.9265 14.6693 29.2682C8.35674 28.6457 3.35429 23.6433 2.73177 17.3307C3.07354 17.314 3.3958 17.1666 3.63187 16.9189C3.86794 16.6712 3.99974 16.3422 4 16C3.99974 15.6578 3.86794 15.3289 3.63187 15.0812C3.3958 14.8335 3.07354 14.686 2.73177 14.6693C3.3975 7.91862 9.07038 2.66668 16 2.66668C16.1767 2.66918 16.3521 2.63654 16.5161 2.57065C16.68 2.50477 16.8292 2.40695 16.9551 2.28289C17.0809 2.15883 17.1808 2.011 17.249 1.84799C17.3172 1.68498 17.3523 1.51004 17.3523 1.33334C17.3523 1.15664 17.3172 0.981706 17.249 0.818697C17.1808 0.655687 17.0809 0.507857 16.9551 0.383798C16.8292 0.259739 16.68 0.161924 16.5161 0.0960393C16.3521 0.0301543 16.1767 -0.00248746 16 1.12728e-05ZM15.9792 6.64845C15.626 6.65397 15.2895 6.79938 15.0434 7.05278C14.7973 7.30617 14.6618 7.64683 14.6667 8.00001V15.3333L9.86719 18.9323C9.58401 19.1443 9.39667 19.4602 9.34637 19.8103C9.29606 20.1605 9.38692 20.5163 9.59896 20.7995C9.81099 21.0827 10.1268 21.27 10.477 21.3203C10.8272 21.3706 11.183 21.2798 11.4661 21.0677L16.7995 17.0677C16.9653 16.9435 17.0999 16.7823 17.1926 16.5969C17.2852 16.4116 17.3334 16.2072 17.3333 16V8.00001C17.3358 7.82163 17.3024 7.64456 17.2352 7.47931C17.168 7.31406 17.0683 7.16397 16.942 7.03794C16.8157 6.91191 16.6654 6.81251 16.5001 6.7456C16.3347 6.6787 16.1575 6.64566 15.9792 6.64845Z" fill="#1B1D20"/>
</svg>
