<svg width="30" height="32" viewBox="0 0 30 32" fill="none" xmlns="http://www.w3.org/2000/svg">
<path d="M15.0002 0C8.86416 0 2.48193 1.38281 2.48193 1.38281L2.47673 1.38802C1.8728 1.50892 1.32934 1.83513 0.938658 2.31127C0.547972 2.7874 0.334145 3.38409 0.333496 4V12C0.333496 25.864 13.6955 31.6589 13.6955 31.6589C14.094 31.8825 14.5432 31.9999 15.0002 32C15.4553 31.9991 15.9027 31.8816 16.2996 31.6589H16.3049C16.3062 31.6589 29.6668 25.864 29.6668 12V4C29.6671 3.38247 29.4531 2.78397 29.0613 2.30666C28.6695 1.82935 28.1242 1.50282 27.5184 1.38281C27.5184 1.38281 21.1362 0 15.0002 0ZM15.0002 5.33333C17.2068 5.33333 19.0002 7.12667 19.0002 9.33333V12H20.3335C21.0695 12 21.6668 12.5973 21.6668 13.3333V20C21.6668 20.736 21.0695 21.3333 20.3335 21.3333H9.66683C8.93083 21.3333 8.3335 20.736 8.3335 20V13.3333C8.3335 12.5973 8.93083 12 9.66683 12H11.0002V9.33333C11.0002 7.12667 12.7935 5.33333 15.0002 5.33333ZM15.0002 8C14.2655 8 13.6668 8.59867 13.6668 9.33333V12H16.3335V9.33333C16.3335 8.59867 15.7348 8 15.0002 8Z" fill="#1B1D20"/>
</svg>
